<svg xmlns="http://www.w3.org/2000/svg" viewBox="0 0 256 256" role="img" aria-label="LangChain">
  <rect width="256" height="256" rx="56" fill="#1f2937"/>
  <path d="M86 102c0-18 14-32 32-32h20c18 0 32 14 32 32s-14 32-32 32h-20c-18 0-32-14-32-32z" fill="#f59e0b"/>
  <path d="M102 154c0-18 14-32 32-32h20c18 0 32 14 32 32s-14 32-32 32h-20c-18 0-32-14-32-32z" fill="#fde68a"/>
  <path d="M114 118h44" stroke="#111827" stroke-width="12" stroke-linecap="round"/>
  <text x="128" y="214" text-anchor="middle" font-family="Arial, sans-serif" font-size="34" font-weight="900" fill="#fff7ed">LangChain</text>
</svg>
