<svg xmlns="http://www.w3.org/2000/svg" viewBox="0 0 256 256" role="img" aria-label="PostgreSQL">
  <rect width="256" height="256" rx="56" fill="#0f172a"/>
  <path d="M128 38c54 0 90 32 90 90s-36 90-90 90-90-32-90-90 36-90 90-90z" fill="#336791"/>
  <path d="M96 86c10-6 26-10 36-10 24 0 42 14 42 36 0 14-6 24-16 31 8 8 14 18 14 31 0 23-19 38-46 38-15 0-30-4-40-10v-22c11 7 24 12 36 12 13 0 22-6 22-17 0-12-10-18-26-18h-12v-18h10c16 0 25-6 25-17 0-10-8-16-20-16-10 0-20 3-29 8V86z" fill="#fff"/>
  <text x="128" y="216" text-anchor="middle" font-family="Arial, sans-serif" font-size="28" font-weight="700" fill="#dbeafe">PostgreSQL</text>
</svg>
