<svg width="114" height="120" viewBox="0 0 114 120" fill="none" xmlns="http://www.w3.org/2000/svg">
<g clip-path="url(#clip0_12737_49388)">
<mask id="mask0_12737_49388" style="mask-type:luminance" maskUnits="userSpaceOnUse" x="-1" y="2" width="116" height="118">
<path d="M114.179 2.75781H-0.195312V119.969H114.179V2.75781Z" fill="white"/>
</mask>
<g mask="url(#mask0_12737_49388)">
<path d="M26.58 2.75781C11.8159 2.75781 -0.195312 14.8321 -0.195312 29.6734C-0.195312 44.5137 11.8159 56.5883 26.58 56.5883C41.3443 56.5883 53.3555 44.5137 53.3555 29.6734C53.3555 14.8321 41.3443 2.75781 26.58 2.75781Z" fill="#0B23A9"/>
<path d="M56.8751 87.0419C47.2303 87.0419 38.117 84.5871 30.1172 80.2771V92.4883C30.1172 107.307 41.888 119.602 56.6286 119.745C71.5137 119.89 83.6687 107.76 83.6687 92.8315V80.2656C75.6613 84.5864 66.5332 87.0419 56.8751 87.0419Z" fill="#0B23A9"/>
<path d="M60.38 29.6796C60.3522 48.4032 45.2313 63.609 26.5383 63.6548C19.3274 63.6736 12.5609 61.417 7.03906 57.4776C16.8259 75.0637 35.5008 87.0544 56.8545 87.0128C87.8741 87.0375 113.47 61.6505 113.987 30.514L113.914 30.4474C113.944 29.6716 113.906 30.3071 113.944 29.6716C113.959 14.8198 101.929 2.69846 87.2282 2.75016C72.3871 2.80905 60.3948 14.8276 60.38 29.6796Z" fill="url(#paint0_linear_12737_49388)"/>
</g>
</g>
<defs>
<linearGradient id="paint0_linear_12737_49388" x1="32.1917" y1="86.0607" x2="98.8381" y2="12.6157" gradientUnits="userSpaceOnUse">
<stop stop-color="#09DBF0"/>
<stop offset="1" stop-color="#0B23A9"/>
</linearGradient>
<clipPath id="clip0_12737_49388">
<rect width="114" height="120" fill="white"/>
</clipPath>
</defs>
</svg>
