<?xml version="1.0" standalone="no"?>
<!DOCTYPE svg PUBLIC "-//W3C//DTD SVG 20010904//EN"
 "http://www.w3.org/TR/2001/REC-SVG-20010904/DTD/svg10.dtd">
<svg version="1.0" xmlns="http://www.w3.org/2000/svg"
 width="1080.000000pt" height="1077.000000pt" viewBox="0 0 1080.000000 1077.000000"
 preserveAspectRatio="xMidYMid meet">

<g transform="translate(0.000000,1077.000000) scale(0.100000,-0.100000)"
fill="#000000" stroke="none">
<path d="M5325 10089 c-60 -5 -173 -13 -250 -19 -77 -6 -171 -15 -210 -20 -38
-5 -128 -17 -200 -25 -242 -30 -440 -78 -800 -197 -148 -49 -331 -116 -405
-150 -200 -90 -386 -182 -465 -229 -38 -23 -110 -64 -158 -91 -105 -59 -226
-140 -306 -206 -32 -26 -93 -72 -136 -102 -43 -30 -117 -87 -164 -126 -98 -82
-465 -454 -521 -529 -21 -27 -52 -63 -70 -80 -42 -39 -159 -193 -245 -325 -38
-58 -88 -131 -111 -162 -23 -31 -63 -101 -89 -155 -26 -54 -76 -148 -111 -209
-34 -61 -77 -146 -94 -190 -17 -43 -44 -106 -60 -139 -48 -100 -88 -209 -110
-295 -12 -45 -32 -110 -45 -144 -61 -156 -149 -508 -165 -661 -33 -314 -43
-426 -51 -575 -4 -91 -6 -203 -3 -250 2 -47 6 -154 9 -238 5 -175 6 -184 46
-462 16 -113 43 -257 60 -320 16 -63 39 -158 50 -210 11 -52 39 -153 63 -225
24 -71 58 -177 76 -234 19 -58 48 -134 67 -170 18 -36 33 -70 33 -76 0 -29
114 -268 173 -363 13 -20 60 -105 105 -187 73 -135 112 -196 232 -360 127
-174 190 -255 244 -314 34 -36 82 -91 108 -121 100 -119 379 -381 508 -478 41
-31 101 -80 133 -109 32 -29 88 -71 125 -93 37 -23 112 -73 167 -111 55 -39
129 -85 165 -103 36 -18 94 -51 130 -75 36 -23 153 -85 260 -138 211 -105 255
-124 342 -153 31 -10 69 -25 85 -33 48 -24 444 -155 508 -167 68 -14 111 -23
175 -39 120 -29 183 -41 280 -51 58 -6 130 -15 160 -20 100 -17 412 -31 595
-26 252 6 548 23 625 36 153 25 181 30 290 49 63 11 138 26 165 34 28 8 75 20
105 27 65 15 219 64 246 78 10 5 71 26 134 47 188 62 482 193 620 278 36 22
85 51 110 65 25 14 90 53 145 87 55 34 114 70 132 81 117 71 371 262 469 353
39 36 99 90 132 119 34 29 92 92 129 140 37 48 103 125 148 172 44 47 96 105
115 130 19 25 45 56 58 70 21 21 101 139 178 260 12 19 30 57 40 83 9 27 23
51 31 54 7 3 13 12 13 19 0 8 7 17 15 20 20 8 98 153 91 171 -8 20 -38 12 -51
-13 -26 -52 -135 -199 -221 -299 -52 -60 -117 -137 -144 -171 -27 -33 -95
-102 -152 -154 -57 -52 -143 -133 -193 -181 -132 -128 -317 -270 -333 -254
-12 12 16 41 134 136 173 140 382 348 442 442 28 42 64 95 81 116 17 21 31 42
31 46 0 4 8 19 18 33 10 15 29 53 42 85 12 31 35 75 51 97 15 21 36 56 45 77
31 74 126 349 134 388 4 22 8 45 10 50 7 28 0 36 -21 23 -11 -7 -37 -22 -56
-33 -20 -11 -46 -40 -60 -65 -35 -63 -44 -74 -105 -138 -29 -31 -69 -78 -88
-104 -19 -26 -43 -50 -52 -53 -10 -4 -28 -21 -40 -38 -28 -41 -48 -56 -71 -57
-34 0 -99 -54 -284 -231 -44 -44 -85 -79 -90 -79 -4 0 -15 4 -23 10 -12 7 -12
12 0 35 8 15 26 33 41 41 15 7 38 30 50 51 13 21 51 75 85 120 34 45 74 108
89 140 14 31 32 64 40 73 8 8 29 44 48 80 18 36 46 89 62 118 15 29 25 55 21
59 -9 9 -37 -9 -48 -30 -32 -66 -97 -159 -152 -217 -29 -30 -69 -75 -90 -100
-83 -97 -131 -150 -139 -150 -11 0 18 65 46 102 13 18 34 53 46 78 13 25 41
69 63 99 22 29 44 68 50 87 5 19 13 34 18 34 10 0 50 85 50 106 0 22 -34 16
-57 -9 -11 -12 -41 -55 -68 -95 -26 -41 -73 -102 -105 -135 -31 -34 -83 -91
-115 -127 -79 -87 -103 -111 -150 -145 -22 -16 -72 -59 -111 -95 -89 -82 -201
-174 -273 -224 -31 -21 -81 -58 -110 -83 -30 -24 -93 -63 -140 -85 -48 -23
-97 -49 -111 -58 -74 -50 -435 -233 -502 -255 -29 -10 -84 -31 -123 -48 -82
-35 -179 -65 -252 -78 -28 -5 -91 -22 -140 -38 -48 -16 -135 -34 -193 -41 -58
-6 -124 -16 -147 -21 -111 -24 -202 -30 -517 -35 -233 -5 -367 -3 -430 5 -311
40 -419 58 -511 85 -75 23 -261 77 -385 112 -30 9 -98 36 -150 60 -52 23 -117
50 -145 59 -74 25 -238 111 -411 216 -60 36 -127 76 -150 87 -22 11 -93 63
-156 114 -64 51 -153 122 -198 157 -128 100 -494 475 -532 544 -10 18 -36 57
-58 87 -94 129 -256 383 -321 504 -24 44 -57 118 -75 165 -17 47 -50 127 -72
176 -52 119 -150 423 -182 565 -47 208 -85 439 -95 570 -5 77 -6 660 -1 669 3
5 8 51 12 102 3 52 10 112 15 134 4 22 9 56 9 75 0 19 16 98 36 175 19 77 41
163 48 191 7 29 27 87 44 130 16 44 49 131 72 194 50 136 159 364 227 472 26
42 77 123 112 180 35 56 75 117 88 133 13 17 65 84 115 150 51 66 123 156 162
201 39 44 88 101 108 126 91 112 482 418 723 565 76 47 421 221 500 253 39 15
120 49 180 75 98 42 137 55 255 86 85 23 207 47 295 59 39 5 93 14 120 20 139
29 334 48 527 51 190 3 423 -11 493 -28 59 -15 119 -26 225 -42 123 -19 412
-93 465 -119 17 -9 44 -19 60 -23 60 -14 425 -161 470 -189 16 -10 66 -33 110
-50 44 -17 85 -35 90 -40 15 -12 140 -60 156 -60 8 0 20 -5 26 -11 6 -6 17 -9
23 -7 12 4 -132 115 -200 155 -19 11 -84 42 -145 68 -60 26 -128 55 -150 65
-22 10 -74 32 -115 50 -41 18 -97 42 -125 54 -27 12 -84 33 -125 45 -41 13
-83 28 -92 32 -10 5 -30 9 -45 9 -16 0 -71 12 -123 26 -52 14 -111 28 -130 30
-19 3 -44 9 -55 14 -11 5 -42 11 -70 15 -145 16 -286 27 -420 33 -136 6 -150
9 -153 26 -3 16 0 18 25 11 15 -4 111 -11 213 -16 102 -5 212 -13 245 -18 33
-5 94 -14 135 -20 99 -14 158 -26 255 -51 44 -12 91 -24 105 -26 87 -17 172
-43 255 -79 17 -8 54 -23 84 -35 55 -21 94 -38 209 -91 35 -16 96 -43 136 -59
74 -31 153 -79 337 -205 56 -38 134 -90 174 -115 87 -55 116 -76 231 -175 49
-43 117 -96 152 -120 66 -45 173 -135 207 -174 19 -22 64 -72 201 -221 33 -36
73 -83 89 -105 16 -22 35 -46 41 -52 7 -7 41 -54 77 -105 175 -252 381 -672
487 -991 17 -53 46 -119 64 -145 44 -65 79 -156 110 -292 37 -160 45 -190 56
-190 5 0 25 -14 45 -31 19 -17 41 -29 49 -26 8 3 22 0 32 -7 14 -11 16 -23 11
-77 -4 -35 -9 -76 -13 -91 -5 -20 -1 -29 15 -38 12 -6 26 -8 31 -5 6 3 10 42
10 87 0 65 4 85 20 105 18 23 19 36 15 147 -11 236 -13 261 -23 301 -6 22 -20
83 -32 135 -12 52 -30 124 -40 160 -11 36 -21 79 -24 95 -3 17 -8 42 -12 58
-8 34 14 37 50 5 34 -32 108 -232 123 -335 3 -18 9 -33 14 -33 12 0 12 0 -10
115 -30 153 -36 176 -126 430 -56 157 -96 247 -177 395 -50 91 -98 176 -108
190 -10 14 -21 36 -25 50 -4 14 -24 54 -45 90 -20 36 -42 81 -49 100 -13 41
-48 92 -146 214 -67 85 -207 261 -346 437 -36 46 -71 94 -78 107 -12 23 -12
23 11 11 13 -6 42 -29 65 -50 24 -22 47 -39 53 -39 6 0 37 -28 70 -62 33 -35
60 -57 60 -50 0 15 -269 284 -339 337 -62 47 -204 176 -281 254 -111 113 -242
209 -405 299 -55 30 -116 69 -135 87 -52 48 -405 265 -431 265 -8 0 -25 7 -37
16 -12 8 -46 23 -74 33 -29 10 -100 41 -158 69 -58 27 -150 66 -205 86 -214
78 -285 108 -285 122 0 18 3 18 85 -9 39 -13 104 -29 145 -36 41 -7 94 -21
118 -32 23 -10 49 -19 56 -19 21 0 188 -57 284 -97 48 -19 110 -42 137 -50 76
-23 352 -140 570 -242 75 -35 237 -130 290 -170 57 -42 88 -52 45 -14 -102 91
-127 111 -169 139 -25 18 -82 51 -126 74 -93 49 -186 119 -218 162 -29 39
-136 108 -212 138 -33 13 -96 40 -140 60 -138 64 -168 77 -225 98 -113 41
-226 85 -260 100 -19 8 -48 19 -65 23 -16 4 -59 15 -95 23 -36 9 -78 21 -95
25 -16 5 -64 14 -105 21 -41 6 -84 15 -95 20 -11 5 -33 11 -50 13 -16 3 -57
10 -90 16 -184 36 -339 55 -495 61 -96 4 -220 10 -275 13 -55 3 -149 1 -210
-4z m1337 -543 c201 -52 391 -133 336 -144 -9 -2 -36 7 -60 19 -24 12 -61 26
-83 30 -141 25 -239 50 -265 69 -54 39 -21 50 72 26z m457 -167 c24 -9 29 -14
21 -24 -13 -16 -46 -9 -79 17 l-24 18 25 0 c14 0 39 -5 57 -11z m185 -45 c59
-28 93 -61 77 -77 -12 -12 -169 70 -182 96 -10 18 -9 19 18 14 17 -3 56 -18
87 -33z m196 -113 c0 -5 -9 -7 -20 -4 -11 3 -20 7 -20 9 0 2 9 4 20 4 11 0 20
-4 20 -9z m1624 -1659 c16 -26 48 -67 72 -92 29 -30 63 -88 104 -175 34 -71
70 -146 80 -165 22 -42 29 -83 15 -90 -5 -3 -42 58 -80 135 -39 77 -98 181
-132 231 -68 101 -103 165 -103 189 0 27 14 16 44 -33z m433 -808 c-3 -3 -12
-4 -19 -1 -8 3 -5 6 6 6 11 1 17 -2 13 -5z m53 -604 c0 -5 -4 -10 -10 -10 -5
0 -10 5 -10 10 0 6 5 10 10 10 6 0 10 -4 10 -10z m-330 -3105 c0 -8 -7 -15
-16 -15 -14 0 -14 3 -4 15 7 8 14 15 16 15 2 0 4 -7 4 -15z"/>
<path d="M8290 9062 c0 -13 34 -42 49 -42 6 0 1 11 -13 25 -26 26 -36 31 -36
17z"/>
<path d="M7538 8453 c7 -3 16 -2 19 1 4 3 -2 6 -13 5 -11 0 -14 -3 -6 -6z"/>
<path d="M8939 8123 c5 -10 22 -34 38 -54 15 -20 38 -49 50 -65 12 -16 52 -69
89 -119 156 -209 393 -615 464 -795 30 -78 72 -161 77 -156 7 7 -35 131 -67
201 -16 33 -35 77 -43 97 -20 47 -204 375 -229 408 -11 14 -34 48 -51 77 -61
101 -132 199 -194 271 -35 40 -75 91 -90 113 -26 39 -64 58 -44 22z"/>
<path d="M8239 7873 c17 -32 110 -128 111 -115 0 16 -33 62 -75 103 -33 32
-51 38 -36 12z"/>
<path d="M4720 7544 c-75 -15 -90 -24 -90 -60 0 -29 12 -47 84 -123 95 -100
131 -161 145 -250 18 -114 -14 -294 -83 -466 -13 -33 -48 -121 -76 -195 -29
-74 -62 -160 -75 -190 -13 -30 -38 -91 -55 -135 -18 -44 -40 -99 -51 -121 -10
-23 -26 -64 -35 -90 -9 -27 -29 -76 -44 -109 -15 -33 -31 -71 -35 -85 -4 -14
-30 -79 -58 -145 -27 -66 -74 -183 -104 -260 -30 -77 -67 -171 -83 -210 -15
-38 -44 -111 -63 -160 -19 -50 -47 -117 -62 -150 -14 -33 -56 -134 -91 -225
-63 -157 -121 -299 -150 -365 -21 -48 -74 -189 -74 -197 0 -4 -13 -36 -30 -70
-16 -34 -30 -67 -30 -73 0 -19 -96 -199 -148 -277 -27 -40 -65 -99 -85 -130
-49 -77 -72 -98 -105 -98 -39 0 -44 8 -23 39 36 52 43 85 30 129 -34 116 -168
165 -287 106 -89 -44 -137 -142 -135 -275 1 -79 17 -114 75 -163 55 -47 90
-56 230 -56 157 0 269 26 461 107 49 21 64 9 48 -38 -22 -64 -38 -79 -84 -79
-82 -1 -176 -63 -220 -145 -16 -30 -21 -59 -21 -115 -1 -64 3 -82 26 -121 53
-90 126 -129 241 -129 75 0 88 3 129 29 60 38 107 107 125 184 17 75 11 114
-29 188 l-31 56 29 88 c16 49 37 93 46 99 24 15 56 -18 124 -128 31 -50 70
-106 87 -124 34 -36 120 -72 171 -72 186 0 335 270 231 420 -56 81 -145 111
-252 84 -36 -9 -68 -12 -72 -8 -18 21 -42 102 -48 161 -8 81 22 217 84 388 14
39 34 95 45 125 11 30 31 79 44 108 13 29 24 56 24 60 0 27 87 221 108 241
l27 24 165 -9 c91 -4 199 -8 240 -8 41 0 278 1 525 1 248 0 464 1 480 2 17 0
58 -2 93 -5 l63 -6 23 -51 c13 -29 40 -96 60 -149 20 -54 40 -106 45 -115 22
-40 149 -365 202 -518 29 -81 38 -123 37 -160 l-3 -50 -87 -5 c-81 -5 -90 -8
-145 -45 -78 -54 -103 -103 -103 -202 0 -117 42 -193 133 -240 44 -23 64 -28
128 -27 93 1 144 26 208 103 68 81 188 146 353 190 178 48 406 11 680 -110
115 -51 197 -65 286 -49 89 15 141 41 192 96 66 72 85 123 85 229 0 81 -3 95
-29 140 -48 82 -111 124 -196 133 -70 6 -125 -13 -171 -61 -65 -66 -73 -88
-65 -183 4 -52 2 -85 -4 -89 -16 -10 -75 61 -134 160 -66 109 -154 274 -180
335 -11 25 -34 77 -51 115 -17 39 -37 86 -45 105 -7 19 -19 49 -26 67 -8 18
-26 67 -40 110 -14 43 -40 111 -59 150 -19 40 -35 76 -35 79 0 3 -6 20 -14 37
-68 158 -153 375 -177 451 -5 16 -33 84 -63 150 -30 67 -79 189 -109 271 -31
83 -75 193 -100 245 -24 52 -61 140 -82 195 -63 170 -122 318 -149 371 -14 29
-26 56 -26 60 0 9 -51 143 -76 199 -7 17 -25 64 -39 105 -14 41 -39 102 -55
135 -48 102 -66 147 -89 217 -11 37 -41 113 -64 170 -52 121 -72 181 -87 263
-7 33 -14 70 -16 83 -7 34 -70 90 -107 96 -18 3 -252 8 -522 11 -269 3 -517 7
-550 9 -33 2 -71 2 -85 0z m588 -1029 c13 -33 35 -84 48 -113 13 -29 24 -56
24 -60 0 -4 19 -54 41 -112 22 -58 54 -143 70 -190 16 -47 60 -164 98 -260 38
-96 98 -251 134 -345 37 -93 87 -222 112 -287 54 -140 56 -153 14 -162 -17 -3
-292 -6 -611 -6 -497 0 -579 2 -584 15 -5 13 22 99 45 142 5 10 18 43 29 73
11 30 60 161 108 290 48 129 100 269 115 310 15 41 50 134 79 205 74 188 125
324 140 375 8 25 16 50 20 55 3 6 12 28 19 50 19 56 41 86 59 83 9 -2 27 -30
40 -63z"/>
<path d="M8835 5240 c-54 -11 -186 -63 -239 -94 -102 -59 -210 -172 -265 -276
-64 -120 -89 -330 -56 -482 45 -212 221 -417 425 -496 169 -65 353 -66 520 -3
187 70 374 275 421 461 54 211 22 415 -91 583 -86 128 -189 207 -348 268 -123
46 -258 61 -367 39z"/>
<path d="M9322 3240 c-17 -27 -15 -60 3 -60 21 0 27 19 17 53 -7 26 -8 26 -20
7z"/>
<path d="M8895 3110 c4 -6 11 -8 16 -5 14 9 11 15 -7 15 -8 0 -12 -5 -9 -10z"/>
</g>
</svg>
