<?xml version="1.0" standalone="no"?>
<!DOCTYPE svg PUBLIC "-//W3C//DTD SVG 20010904//EN"
 "http://www.w3.org/TR/2001/REC-SVG-20010904/DTD/svg10.dtd">
<svg version="1.0" xmlns="http://www.w3.org/2000/svg"
 width="1254.000000pt" height="1254.000000pt" viewBox="0 0 1254.000000 1254.000000"
 preserveAspectRatio="xMidYMid meet">

<g transform="translate(0.000000,1254.000000) scale(0.100000,-0.100000)"
fill="#000000" stroke="none">
<path d="M6060 11519 c-115 -13 -296 -39 -384 -55 -43 -9 -81 -13 -84 -10 -5
6 -5 6 78 30 l55 15 -60 -5 c-33 -3 -87 -12 -120 -19 -33 -7 -80 -16 -105 -19
-56 -8 -133 -35 -105 -36 l20 -1 -20 -9 c-28 -12 -57 -12 -50 0 3 6 1 10 -5
10 -6 0 -13 -7 -16 -15 -6 -15 -123 -55 -161 -55 -10 0 -23 -4 -28 -8 -6 -5
-45 -19 -88 -31 -44 -13 -91 -29 -105 -37 -15 -8 -34 -14 -43 -14 -9 0 -19 -3
-22 -6 -10 -11 -109 -44 -142 -48 -16 -2 -67 -22 -112 -45 -46 -23 -89 -41
-96 -41 -7 0 -22 -7 -33 -15 -10 -8 -26 -15 -35 -15 -9 0 -19 -6 -22 -14 -3
-7 -47 -36 -99 -63 -51 -28 -127 -69 -168 -93 -41 -23 -84 -48 -95 -54 -47
-26 -183 -112 -213 -134 -18 -14 -35 -23 -37 -20 -3 2 20 22 50 44 30 21 55
43 55 48 0 5 -6 4 -12 -2 -21 -16 -219 -166 -250 -188 -16 -12 -53 -44 -82
-70 -60 -56 -92 -84 -184 -162 -117 -98 -353 -330 -390 -383 -11 -15 -17 -18
-22 -9 -8 13 -39 -17 -93 -88 -12 -15 -24 -29 -27 -32 -18 -16 -89 -109 -100
-130 -7 -14 -29 -45 -50 -70 -54 -66 -135 -182 -160 -226 -11 -21 -36 -64 -55
-94 -98 -159 -321 -612 -398 -806 -58 -146 -147 -409 -147 -432 0 -8 -6 -28
-14 -45 -19 -45 -79 -293 -106 -442 -36 -200 -50 -297 -60 -410 -7 -71 -14
-133 -15 -136 -6 -9 -19 -276 -18 -364 1 -226 4 -285 13 -285 6 0 8 49 4 134
-4 80 -3 140 3 151 7 12 12 -12 17 -88 3 -58 13 -118 21 -133 8 -17 18 -93 25
-183 11 -149 9 -195 -5 -132 -4 17 -11 31 -17 31 -6 0 -8 -11 -4 -27 4 -16 11
-59 16 -98 11 -88 24 -132 48 -159 11 -12 22 -44 26 -72 6 -46 4 -52 -11 -50
-15 1 -18 -7 -16 -54 l2 -55 -12 42 c-13 44 -27 66 -27 42 0 -8 14 -68 31
-134 17 -66 32 -129 34 -140 1 -11 8 -40 15 -65 6 -25 15 -63 20 -85 5 -22 19
-69 31 -105 12 -36 24 -72 27 -80 3 -8 18 -51 34 -95 17 -44 31 -89 32 -100 5
-39 58 -171 87 -215 5 -8 13 -24 16 -35 4 -11 21 -48 39 -81 18 -34 31 -64 28
-67 -2 -2 25 -64 61 -138 89 -182 90 -184 104 -181 12 2 77 -94 136 -202 20
-39 56 -95 79 -125 78 -103 89 -122 70 -114 -21 8 -19 4 55 -100 39 -56 57
-74 61 -62 4 12 17 2 53 -39 45 -52 58 -74 37 -61 -6 3 -10 -1 -10 -9 0 -8 21
-32 47 -53 26 -21 79 -72 118 -113 38 -41 116 -120 173 -175 56 -56 102 -105
102 -109 0 -5 -7 -2 -17 5 -9 8 -14 9 -12 3 6 -15 217 -211 254 -236 17 -11
-1 10 -40 46 -38 36 -65 66 -60 66 9 0 72 -49 246 -190 60 -48 247 -173 354
-235 117 -68 110 -63 101 -72 -3 -4 -19 0 -34 8 -65 37 -239 141 -259 156 -13
8 -23 12 -23 7 0 -22 396 -254 431 -254 8 0 -5 12 -28 26 -24 14 -43 29 -43
35 0 13 2 13 82 -30 40 -22 96 -47 123 -56 28 -9 70 -28 95 -43 25 -14 51 -25
57 -24 7 2 10 -3 8 -10 -4 -9 17 -21 62 -38 54 -19 85 -24 148 -22 51 1 99 -5
132 -15 42 -14 60 -15 85 -6 18 6 78 11 133 12 90 2 104 4 137 28 30 20 44 24
73 19 33 -7 40 -4 79 37 54 57 126 104 126 82 0 -24 48 11 52 38 2 14 10 21
20 21 10 -1 37 20 60 47 106 120 107 122 124 210 8 46 19 88 24 93 5 5 6 14 4
21 -7 17 20 37 40 29 10 -4 15 -13 12 -20 -11 -29 11 -12 37 28 32 50 33 58 6
92 -26 33 -37 33 -41 -1 -2 -17 -10 -29 -21 -31 -14 -3 -17 4 -17 45 -2 208 3
260 16 164 4 -31 11 -50 18 -48 30 10 -23 301 -72 392 -9 17 -17 32 -17 35 -3
20 -29 50 -43 50 -18 0 -52 56 -52 85 0 15 -35 80 -58 108 -9 9 -20 27 -26 39
-6 11 -19 26 -30 32 -10 6 -31 23 -46 39 -16 15 -37 27 -48 27 -10 0 -27 8
-36 19 -9 10 -38 27 -63 36 -40 16 -53 16 -112 5 -36 -7 -88 -13 -116 -12 -27
1 -99 2 -160 2 -107 0 -239 22 -251 41 -3 5 -12 9 -21 9 -28 0 -165 71 -237
124 -194 139 -259 198 -382 341 -146 170 -161 189 -182 226 -11 19 -45 72 -77
119 -31 46 -66 100 -76 120 -11 19 -23 42 -28 50 -6 8 -24 47 -41 85 -18 39
-47 102 -65 140 -40 85 -71 167 -102 270 -9 28 -20 55 -25 61 -5 7 -11 28 -13
47 -3 19 -11 55 -20 79 -8 24 -17 62 -20 84 -11 71 -36 198 -46 234 -5 19 -9
46 -7 60 4 52 -3 89 -19 106 -15 15 -18 42 -20 193 -2 97 -3 183 -2 191 0 8 2
80 3 160 3 124 11 210 31 330 3 14 9 57 15 95 5 39 14 90 19 115 5 25 13 63
17 85 4 22 8 42 9 45 5 21 19 78 21 90 13 68 26 115 35 126 6 8 9 14 5 14 -4
0 1 11 9 24 9 13 19 45 21 71 3 25 16 62 30 82 13 20 24 43 24 52 0 9 9 34 21
55 11 21 18 44 16 50 -3 7 8 29 24 51 16 21 29 49 29 61 0 30 20 74 34 74 12
0 76 110 76 130 0 8 7 21 15 30 27 30 63 109 51 114 -6 2 5 20 24 38 19 19 34
41 32 49 -2 9 4 21 12 28 12 10 14 8 9 -11 l-5 -23 17 24 c10 13 19 35 21 49
2 24 24 56 24 36 0 -5 -5 -15 -12 -22 -7 -7 -9 -12 -6 -12 11 0 78 99 78 115
0 8 3 15 8 15 4 0 15 17 24 38 23 54 157 205 175 198 9 -4 17 1 20 14 3 11 10
20 15 20 6 0 8 6 5 14 -7 18 16 38 35 31 14 -6 218 193 218 213 0 12 126 122
140 122 5 0 6 -8 3 -17 -5 -14 -4 -16 8 -7 8 6 39 27 71 47 31 20 58 40 60 44
1 5 30 21 63 37 41 20 54 31 42 34 -10 2 -29 -4 -42 -12 -14 -9 -25 -12 -25
-6 0 6 12 15 28 21 15 6 40 17 55 25 16 8 39 14 52 14 30 0 55 10 55 22 0 5
-4 6 -10 3 -5 -3 -10 -2 -10 4 0 15 56 42 73 36 7 -3 27 -1 43 6 25 10 27 12
10 18 -17 7 -16 9 7 24 42 27 65 19 30 -10 -22 -18 -20 -17 100 30 101 40 132
66 50 41 -145 -44 22 36 212 101 158 54 301 91 485 126 296 55 781 37 1053
-39 37 -11 67 -16 67 -11 0 14 21 11 89 -12 63 -20 100 -19 45 1 -16 6 -49 21
-73 32 -28 14 -69 22 -113 25 -38 1 -76 7 -86 12 -9 5 -60 16 -112 25 -52 9
-120 22 -150 28 -30 7 -139 13 -242 14 -102 1 -191 5 -196 8 -6 3 -13 3 -16
-2 -2 -4 -40 -9 -83 -10 -43 -1 -100 -6 -126 -11 -26 -4 -47 -5 -47 -1 0 8
103 27 198 36 40 4 75 11 78 15 5 9 -11 13 -30 10 -6 -1 -37 -4 -70 -7 -34 -3
-89 -10 -124 -16 -35 -6 -65 -8 -69 -5 -6 7 20 13 90 22 66 9 59 22 -10 18
-105 -6 -20 17 101 27 222 20 304 22 443 11 365 -29 722 -130 1098 -310 280
-134 569 -332 809 -555 200 -185 480 -539 575 -725 12 -23 26 -41 31 -41 14 0
-9 43 -102 187 -44 68 -78 129 -75 136 4 13 68 -70 92 -120 9 -18 26 -45 38
-60 26 -32 84 -126 117 -191 12 -24 24 -42 27 -39 3 3 -13 40 -35 82 -22 41
-33 70 -26 64 8 -7 17 -10 19 -7 7 7 -30 48 -42 48 -6 0 -34 39 -64 88 -57 93
-155 228 -183 251 -9 7 -16 20 -16 29 0 28 -275 317 -437 460 -127 111 -303
243 -398 297 -27 16 -60 37 -72 48 -12 11 -33 25 -45 32 -34 19 -204 103 -268
133 -30 14 -82 38 -115 53 -33 15 -73 33 -89 39 -48 18 -24 20 29 3 92 -30
259 -96 355 -140 93 -42 98 -37 20 20 -15 11 -10 9 13 -3 21 -12 63 -35 95
-50 31 -16 109 -63 172 -104 63 -41 153 -99 200 -127 93 -56 116 -73 191 -137
28 -24 54 -40 58 -37 17 18 -254 234 -394 315 -116 67 -228 141 -223 146 15
14 313 -174 465 -293 349 -274 629 -596 852 -981 24 -41 45 -71 48 -68 18 18
-260 447 -356 548 -19 21 -31 41 -27 45 4 4 15 -2 24 -14 106 -135 162 -212
162 -221 0 -5 7 -16 17 -23 29 -25 206 -301 265 -414 32 -60 57 -104 58 -97 0
13 -82 176 -130 257 -16 28 -34 59 -39 70 -5 11 -20 36 -33 55 -13 19 -28 42
-32 50 -8 13 -7 13 7 0 30 -28 106 -145 167 -257 55 -102 80 -138 80 -116 0 4
-21 46 -45 92 -49 90 -49 91 -36 91 5 0 54 -91 109 -202 100 -202 108 -219
155 -333 33 -79 131 -375 147 -445 7 -30 16 -62 21 -71 11 -21 53 -230 70
-342 10 -71 10 -90 0 -96 -10 -6 -9 -10 2 -14 17 -6 25 -48 31 -167 3 -51 2
-68 -4 -52 -5 12 -12 22 -14 22 -3 0 -5 -89 -4 -197 1 -109 -1 -211 -5 -228
-3 -16 -9 -75 -12 -130 -8 -138 -14 -195 -20 -205 -3 -5 -8 -33 -11 -62 -2
-29 -7 -64 -11 -78 -3 -14 -7 -32 -7 -40 -3 -30 -18 -95 -26 -115 -5 -11 -11
-33 -13 -50 -6 -40 -61 -249 -81 -305 -8 -24 -14 -46 -12 -48 6 -6 36 60 36
78 0 16 29 93 30 79 1 -29 -84 -309 -115 -376 -14 -31 -23 -59 -20 -62 9 -8
22 16 51 94 26 69 44 100 44 77 0 -6 -4 -21 -10 -34 -5 -13 -27 -72 -49 -133
-40 -112 -95 -243 -146 -348 -24 -49 -26 -60 -14 -69 12 -8 11 -9 -2 -5 -16 5
-60 -55 -74 -103 -4 -14 -29 -59 -55 -100 -26 -41 -57 -93 -69 -115 -12 -22
-50 -80 -85 -130 -83 -116 -145 -217 -116 -189 29 28 167 227 226 327 29 47
50 73 54 66 6 -8 9 -8 14 0 4 6 2 11 -3 11 -19 0 -12 20 9 28 32 12 132 189
200 357 18 44 37 85 42 91 10 14 87 226 103 284 2 8 7 25 11 38 4 13 2 22 -4
22 -7 0 -4 14 7 33 10 17 29 70 41 117 13 47 34 123 48 170 24 83 79 335 86
395 2 17 11 84 20 150 8 66 16 126 16 133 0 22 20 12 20 -10 0 -13 3 -41 6
-62 l7 -39 13 33 c8 18 17 80 21 137 3 56 10 103 15 103 5 0 8 -6 7 -12 -4
-30 2 -78 9 -78 4 0 6 30 5 68 -3 88 6 164 18 156 6 -3 8 -42 5 -92 -9 -135
-17 -252 -22 -307 -3 -27 -7 -76 -9 -109 -2 -32 -11 -90 -19 -130 -8 -39 -20
-102 -26 -141 -6 -38 -19 -97 -27 -130 -9 -33 -19 -80 -24 -105 -18 -103 -83
-328 -118 -410 -68 -158 -84 -200 -79 -206 6 -5 -95 -209 -149 -301 -13 -23
-22 -47 -18 -52 3 -6 -3 -19 -15 -31 -11 -11 -20 -27 -20 -35 0 -8 -4 -15 -10
-15 -5 0 -10 -7 -10 -15 0 -8 -43 -80 -95 -160 -53 -80 -93 -150 -90 -155 7
-12 -44 -82 -55 -75 -10 6 -80 -79 -80 -97 0 -7 -11 -26 -24 -41 -60 -70 -91
-111 -88 -119 1 -4 -4 -7 -10 -6 -7 2 -13 -4 -13 -13 0 -9 -22 -40 -48 -69
-51 -57 -61 -82 -22 -56 14 9 25 14 25 12 0 -19 -422 -418 -560 -530 -97 -78
-355 -256 -372 -256 -4 0 -29 -16 -55 -36 -25 -19 -77 -51 -114 -70 -47 -23
-67 -38 -63 -48 3 -9 -7 -20 -27 -30 -38 -19 -50 -15 -14 4 38 20 30 29 -12
15 -24 -8 -38 -20 -38 -30 0 -9 -9 -21 -19 -27 -14 -8 -17 -7 -12 1 13 20 -20
12 -92 -24 -118 -58 -308 -133 -493 -196 -82 -27 -244 -71 -334 -89 -33 -7
-55 -15 -49 -17 17 -6 149 19 224 42 25 7 83 21 130 30 160 31 225 48 265 68
39 20 40 21 15 29 -17 5 -11 6 20 3 33 -3 54 1 80 16 l35 20 -35 -6 -35 -5 40
20 c22 11 54 20 71 20 28 0 129 46 327 147 34 18 67 32 72 32 27 1 -54 -47
-185 -111 -284 -137 -383 -179 -500 -213 -30 -9 -82 -25 -115 -37 -109 -38
-261 -78 -365 -97 -110 -20 -165 -34 -177 -43 -10 -8 -58 -14 -145 -17 -21 0
-38 -6 -38 -12 0 -12 16 -11 245 22 77 11 149 23 160 26 11 4 31 6 45 4 14 -1
106 19 204 44 180 46 249 55 117 15 -73 -23 -96 -37 -38 -25 47 10 150 46 164
57 7 6 18 8 24 6 21 -7 -34 -34 -126 -62 -49 -15 -115 -36 -145 -46 -30 -10
-91 -23 -135 -30 -55 -8 -86 -18 -98 -31 -12 -12 -26 -18 -37 -14 -10 3 -45
-1 -77 -9 -32 -8 -84 -17 -115 -21 -32 -3 -61 -11 -64 -17 -4 -6 4 -8 22 -4
16 3 65 10 109 15 119 15 136 18 279 50 302 70 616 181 869 307 48 24 93 44
101 44 8 0 16 3 18 8 3 6 19 16 126 73 18 9 47 28 65 42 18 13 43 27 55 32 32
9 182 103 257 159 33 25 87 65 120 90 156 117 374 302 433 368 8 9 20 14 27
12 12 -5 51 36 108 110 15 20 36 36 45 36 15 0 62 58 62 76 0 3 11 15 25 26
14 11 25 24 25 30 0 13 33 56 93 122 26 29 47 57 47 62 0 15 60 94 71 94 17 0
9 -25 -19 -60 -37 -46 -74 -110 -63 -110 5 0 12 7 15 16 4 9 13 14 21 10 8 -3
15 -1 15 4 0 19 2 25 12 37 6 7 14 11 18 8 8 -5 60 57 60 71 0 4 -10 -1 -22
-12 -20 -18 -20 -17 2 13 13 18 26 30 30 28 4 -3 16 5 26 18 l19 22 -22 -19
c-13 -11 -23 -15 -23 -9 0 11 38 48 49 48 3 0 6 11 6 25 0 30 90 196 110 204
9 3 21 18 28 33 12 29 14 31 47 73 16 21 19 22 20 7 0 -10 -5 -28 -11 -40 -10
-22 -10 -22 6 -2 28 34 68 106 62 111 -3 3 -13 -9 -22 -26 -15 -29 -18 -31
-32 -17 -14 13 -14 18 -1 44 44 84 118 196 125 190 3 -3 -7 -23 -21 -44 -14
-20 -26 -46 -26 -56 0 -10 -7 -25 -15 -33 -17 -18 -21 -49 -4 -38 22 13 89
167 83 191 -4 13 -2 23 5 23 6 0 8 -7 5 -15 -4 -8 -4 -15 -1 -15 9 0 63 102
82 155 19 50 35 79 42 72 2 -2 -8 -34 -22 -72 -14 -37 -23 -70 -21 -73 6 -6
59 106 97 206 13 34 27 62 31 62 12 0 10 -9 -16 -64 -13 -28 -40 -93 -61 -144
-28 -68 -41 -89 -50 -82 -16 14 -25 2 -25 -34 0 -17 -11 -51 -25 -76 -13 -25
-29 -57 -36 -72 -6 -16 -17 -28 -25 -28 -8 0 -22 -15 -30 -32 -19 -43 -65
-126 -88 -161 -22 -32 -4 -37 18 -5 30 42 15 3 -19 -52 -52 -83 -66 -110 -70
-132 -3 -12 -14 -27 -25 -35 -11 -8 -20 -18 -20 -23 0 -5 -36 -59 -81 -121
-44 -61 -78 -113 -75 -117 3 -3 7 -3 9 -1 2 2 16 22 32 44 17 22 39 53 51 70
11 16 36 46 55 66 59 61 95 119 80 129 -11 6 -6 18 19 55 17 25 35 44 38 41 3
-4 -5 -21 -17 -39 l-22 -32 25 28 c14 15 26 39 26 52 0 25 67 136 115 190 l26
30 -16 -34 c-9 -18 -12 -30 -6 -27 6 4 18 24 28 44 10 20 28 52 40 71 13 19
23 42 23 52 0 11 5 19 10 19 6 0 10 7 10 15 0 9 11 38 25 65 14 28 25 53 24
57 0 3 7 10 16 15 10 6 14 16 10 29 -4 10 -2 19 3 19 12 0 22 24 29 65 4 28 3
29 -10 10 -7 -11 -21 -39 -30 -62 -18 -47 -77 -144 -77 -128 0 30 89 220 180
382 16 29 27 59 24 68 -4 8 5 30 18 48 24 30 68 110 68 122 0 3 -5 5 -11 5 -5
0 -15 -13 -20 -30 -6 -16 -15 -30 -20 -30 -12 0 -3 35 32 133 15 43 31 99 35
125 3 26 11 52 16 59 23 29 88 379 113 608 8 77 20 187 26 245 7 58 13 128 14
155 1 28 5 82 9 120 4 46 3 63 -3 50 -7 -14 -10 5 -12 70 -2 50 -3 104 -4 122
-10 182 -18 284 -26 331 -5 31 -16 100 -24 152 -8 52 -22 127 -31 165 -10 39
-18 84 -19 100 -1 17 -9 55 -18 85 -8 30 -21 80 -27 110 -7 30 -18 73 -25 95
-7 22 -23 74 -36 115 -31 106 -52 169 -97 295 -55 150 -56 157 -29 104 41 -80
123 -306 162 -450 8 -31 21 -59 28 -62 7 -3 19 -24 26 -48 7 -24 16 -51 19
-59 12 -33 13 -72 3 -65 -16 9 -13 -8 9 -60 11 -26 18 -50 15 -55 -3 -4 1 -39
9 -76 8 -38 20 -103 26 -144 7 -41 16 -82 21 -90 14 -24 10 47 -6 124 -8 38
-13 72 -10 74 5 5 25 -42 25 -58 0 -5 6 -11 13 -14 9 -5 9 -7 0 -12 -10 -4
-10 -11 0 -32 8 -15 15 -45 16 -67 3 -62 29 -268 40 -316 16 -71 20 -118 11
-124 -4 -3 -7 -22 -5 -42 1 -21 3 -111 5 -200 1 -91 6 -163 11 -163 5 0 9 3
10 8 0 4 3 36 6 72 6 81 14 93 14 20 0 -30 0 -64 0 -75 3 -56 -5 -187 -12
-191 -4 -2 -6 -22 -4 -44 2 -22 1 -38 -3 -36 -4 2 -7 -26 -7 -64 0 -38 -3 -66
-8 -63 -4 2 -7 -22 -6 -54 3 -153 -23 -321 -92 -583 -45 -169 -146 -480 -185
-565 -12 -27 -39 -93 -60 -145 -90 -233 -289 -612 -426 -813 -22 -32 -38 -63
-35 -70 5 -16 121 164 212 328 186 337 319 633 399 884 25 78 51 149 57 157 7
8 9 17 6 20 -3 3 0 22 8 43 44 125 157 666 153 735 0 12 7 98 16 191 11 108
17 261 17 420 1 240 -5 320 -38 575 -27 216 -32 245 -42 290 -13 56 -13 60 -2
60 6 0 14 -19 18 -42 5 -24 11 -38 15 -33 8 15 -36 203 -52 218 -10 10 -11 6
-5 -18 3 -16 3 -27 -1 -22 -4 4 -29 85 -56 180 -26 94 -62 224 -79 287 -18 63
-33 135 -34 160 -1 55 -24 110 -57 136 -29 23 -44 50 -98 174 -23 52 -71 150
-106 218 -35 68 -64 126 -64 129 0 3 9 -2 20 -12 34 -30 23 0 -33 92 -95 156
-157 248 -172 253 -15 5 -74 78 -187 229 -35 46 -85 105 -111 131 -26 26 -46
52 -45 58 8 26 -366 383 -553 529 -71 55 -102 62 -43 11 56 -50 30 -44 -32 7
-52 42 -114 81 -114 72 0 -2 36 -32 80 -66 44 -34 80 -64 80 -68 0 -3 -9 1
-20 8 -10 8 -73 51 -140 97 -66 46 -120 87 -120 93 0 14 3 12 51 -26 48 -38
73 -47 44 -15 -29 32 -107 72 -115 59 -6 -8 -9 -8 -14 0 -4 6 -4 11 0 11 4 0
-3 11 -16 25 -13 14 -20 25 -15 25 11 0 156 -92 268 -170 11 -8 18 -10 14 -3
-4 6 -39 33 -77 58 -39 26 -70 52 -70 59 0 16 -87 80 -168 123 -119 63 -377
193 -384 193 -4 0 -44 17 -90 39 -166 77 -220 101 -228 101 -8 0 -64 25 -112
51 -10 5 -24 9 -31 9 -8 0 -19 11 -25 24 -7 16 -22 26 -46 30 -44 8 -110 35
-103 42 5 6 83 -15 185 -48 71 -24 94 -19 31 6 -23 9 -39 19 -36 22 6 6 255
-77 336 -113 30 -13 56 -21 59 -19 10 11 -364 159 -433 171 -11 2 -48 13 -82
24 -34 12 -66 20 -70 19 -4 -1 -23 6 -41 16 -19 9 -40 15 -48 12 -7 -3 -37 1
-66 10 -74 20 -323 69 -398 78 -208 24 -362 37 -454 38 -61 1 -122 4 -136 9
-29 9 -14 11 53 9 28 -1 47 3 47 9 0 7 -38 11 -110 11 -67 0 -110 4 -110 10 0
23 438 4 599 -26 47 -8 101 -14 120 -13 20 2 46 -3 58 -9 31 -17 47 -15 68 8
21 24 38 25 54 6 8 -10 33 -14 79 -14 86 1 272 -35 350 -68 19 -8 53 -16 75
-18 53 -5 159 -42 172 -59 6 -8 28 -20 50 -27 41 -13 139 -60 275 -130 80 -42
90 -45 90 -30 0 5 -34 26 -75 46 -85 41 -111 64 -68 57 43 -7 -74 55 -197 104
-133 53 -177 66 -195 59 -8 -3 -15 -1 -15 5 0 6 -9 8 -20 4 -11 -4 -46 1 -78
11 -50 15 -170 46 -287 75 -22 6 -51 12 -65 14 -14 2 -63 11 -110 19 -47 9
-134 23 -195 31 -60 8 -146 19 -190 26 -128 17 -864 -4 -952 -27 -39 -11 -25
12 15 24 81 24 -118 1 -325 -38 -114 -22 -212 -40 -218 -40 -50 2 158 54 375
95 74 14 158 29 185 35 70 14 254 30 270 23 8 -2 20 -1 26 3 9 5 7 10 -7 15
-12 5 5 8 46 9 36 2 79 6 95 10 41 10 -240 10 -335 -1z m-220 -60 c-14 -6 -72
-19 -130 -30 -179 -34 -370 -80 -490 -117 -63 -20 -117 -36 -120 -37 -10 -1
-97 -28 -163 -51 -38 -13 -73 -22 -78 -19 -5 3 -45 -10 -89 -29 -74 -32 -110
-37 -110 -16 0 5 21 16 48 26 26 10 52 20 57 24 6 4 44 17 85 30 41 13 93 31
116 41 22 9 65 24 95 33 30 8 115 33 189 54 216 63 283 79 287 66 3 -8 15 -9
41 -3 55 14 212 37 252 37 33 1 34 0 10 -9z m224 -159 c-6 -6 -35 -13 -65 -16
-30 -3 -87 -12 -128 -20 -82 -16 -99 -13 -49 9 61 27 265 50 242 27z m386 0
c-20 -13 -57 -13 -65 0 -4 6 11 10 37 10 31 0 39 -3 28 -10z m877 -126 c-3 -3
-12 -4 -19 -1 -8 3 -5 6 6 6 11 1 17 -2 13 -5z m-2707 -54 c0 -4 -27 -18 -60
-33 -72 -30 -79 -22 -12 13 47 26 72 33 72 20z m-148 -72 c-7 -7 -12 -8 -12
-2 0 14 12 26 19 19 2 -3 -1 -11 -7 -17z m-42 -18 c-14 -11 -32 -20 -40 -20
-8 0 -1 9 15 20 39 26 58 26 25 0z m-195 -110 c-3 -5 -12 -10 -18 -10 -7 0 -6
4 3 10 19 12 23 12 15 0z m4165 -219 c0 -18 -18 -21 -30 -6 -10 13 -9 15 9 15
11 0 21 -4 21 -9z m153 -87 c21 -14 36 -28 34 -31 -3 -2 -24 9 -48 26 -51 37
-39 42 14 5z m132 -82 c-3 -3 -11 0 -18 7 -9 10 -8 11 6 5 10 -3 15 -9 12 -12z
m-5120 -41 c-3 -6 -11 -11 -17 -11 -6 0 -6 6 2 15 14 17 26 13 15 -4z m-77
-49 c-7 -16 -106 -102 -117 -102 -22 0 -7 19 49 64 52 42 76 55 68 38z m5292
-44 c0 -5 -9 -3 -20 4 -11 7 -20 16 -20 20 0 5 9 3 20 -4 11 -7 20 -16 20 -20z
m86 -59 c4 -8 1 -8 -14 0 -12 6 -24 16 -28 22 -4 8 -1 8 14 0 12 -6 24 -16 28
-22z m-1969 -25 c-3 -3 -12 -4 -19 -1 -8 3 -5 6 6 6 11 1 17 -2 13 -5z m61
-11 c-10 -2 -26 -2 -35 0 -10 3 -2 5 17 5 19 0 27 -2 18 -5z m137 -25 c15 -6
11 -7 -14 -3 -18 3 -42 5 -52 5 -11 0 -19 4 -19 10 0 10 51 3 85 -12z m1860
-8 c3 -5 2 -10 -4 -10 -5 0 -13 5 -16 10 -3 6 -2 10 4 10 5 0 13 -4 16 -10z
m-2226 -26 c9 -8 -45 -2 -64 6 -14 7 -8 8 20 3 22 -3 42 -7 44 -9z m458 10
c-3 -3 -12 -4 -19 -1 -8 3 -5 6 6 6 11 1 17 -2 13 -5z m-314 -31 c-7 -2 -21
-2 -30 0 -10 3 -4 5 12 5 17 0 24 -2 18 -5z m473 -9 c27 -9 53 -20 58 -25 11
-10 -103 19 -124 32 -26 15 11 11 66 -7z m-266 -24 c100 -26 137 -44 70 -35
-80 11 -220 46 -226 57 -9 14 47 6 156 -22z m-3886 -15 c-4 -8 -8 -15 -10 -15
-2 0 -4 7 -4 15 0 8 4 15 10 15 5 0 7 -7 4 -15z m4167 -65 c118 -39 166 -59
142 -60 -7 0 -36 9 -65 19 -29 11 -92 31 -140 46 -49 14 -88 28 -88 30 0 11
38 3 151 -35z m-4221 11 c-11 -21 -30 -37 -30 -25 0 8 30 44 37 44 2 0 -1 -9
-7 -19z m4607 13 c-3 -3 -12 -4 -19 -1 -8 3 -5 6 6 6 11 1 17 -2 13 -5z m53
-19 c16 -9 19 -14 9 -15 -8 0 -24 7 -35 15 -24 18 -7 19 26 0z m-131 -13 c22
-10 38 -21 35 -25 -5 -5 -78 23 -91 36 -12 13 15 7 56 -11z m-349 -32 c0 -5
-2 -10 -4 -10 -3 0 -8 5 -11 10 -3 6 -1 10 4 10 6 0 11 -4 11 -10z m466 -20
c15 -6 24 -13 22 -16 -8 -7 -88 27 -88 37 0 6 8 5 19 -1 11 -5 32 -15 47 -20z
m157 -2 c15 -5 27 -14 27 -19 0 -5 -19 0 -42 12 -47 24 -64 36 -33 25 11 -5
32 -13 48 -18z m-63 -44 l25 -15 -25 7 c-14 3 -29 10 -34 15 -16 14 6 10 34
-7z m-4867 -13 c-3 -11 -15 -29 -28 -41 l-24 -22 6 23 c6 25 31 59 44 59 4 0
5 -9 2 -19z m2832 9 c-3 -5 -13 -10 -21 -10 -8 0 -14 5 -14 10 0 6 9 10 21 10
11 0 17 -4 14 -10z m-55 -7 c0 -7 -225 -69 -290 -80 -62 -11 14 18 111 42 57
14 115 29 129 34 33 12 50 13 50 4z m1930 -29 c0 -2 -7 -4 -15 -4 -8 0 -15 4
-15 10 0 5 7 7 15 4 8 -4 15 -8 15 -10z m-1840 1 c0 -8 -52 -26 -58 -20 -3 2
6 9 19 14 28 11 39 13 39 6z m2120 -27 c0 -10 -36 7 -45 22 -4 6 5 5 19 -2 14
-6 26 -15 26 -20z m-161 -25 c113 -56 106 -52 99 -58 -7 -7 -208 90 -208 100
0 10 14 4 109 -42z m310 25 c67 -43 76 -48 94 -54 9 -3 17 -10 17 -16 0 -5
-10 -3 -22 3 -38 19 -138 82 -138 85 0 8 15 3 49 -18z m-2387 -20 c-9 -9 -15
-9 -24 0 -9 9 -7 12 12 12 19 0 21 -3 12 -12z m-2855 -39 c1 -11 -5 -23 -13
-26 -24 -9 -29 5 -9 27 22 24 20 24 22 -1z m5259 -29 c46 -27 86 -50 89 -50 6
0 83 -57 141 -105 39 -31 54 -33 28 -4 -19 22 -19 22 4 10 12 -7 21 -19 20
-28 -2 -11 12 -24 36 -37 22 -12 65 -44 95 -71 73 -66 103 -87 67 -47 -17 18
-26 32 -20 32 12 0 200 -183 288 -279 71 -79 94 -111 76 -111 -5 0 -10 4 -10
8 0 13 -233 244 -290 287 -29 22 -76 56 -106 76 -30 19 -63 44 -74 55 -10 10
-30 27 -42 36 -13 10 -48 37 -78 60 -62 49 -202 142 -272 183 -45 25 -57 35
-42 35 4 0 44 -22 90 -50z m-5306 -28 c0 -13 -31 -52 -41 -52 -6 0 -2 14 8 30
16 28 33 39 33 22z m6764 -221 c32 -39 56 -74 54 -76 -3 -3 -49 50 -102 118
-54 67 -78 101 -55 76 24 -25 70 -78 103 -118z m-1118 115 c10 -8 17 -17 14
-19 -3 -3 -16 3 -29 14 -27 22 -15 26 15 5z m1205 -228 c11 -21 11 -22 -4 -9
-10 7 -17 17 -17 22 0 15 9 10 21 -13z m-991 -103 c16 -19 0 -19 -26 0 -16 12
-16 14 -3 15 9 0 22 -7 29 -15z m-4050 -55 c-8 -5 -19 -10 -25 -10 -5 0 -3 5
5 10 8 5 20 10 25 10 6 0 3 -5 -5 -10z m4250 -213 c0 -6 -9 -2 -20 8 -11 10
-20 23 -20 28 0 6 9 2 20 -8 11 -10 20 -23 20 -28z m131 -9 c27 -33 23 -45 -6
-18 -24 22 -32 40 -19 40 3 0 14 -10 25 -22z m44 -58 c3 -5 1 -10 -4 -10 -6 0
-11 5 -11 10 0 6 2 10 4 10 3 0 8 -4 11 -10z m-355 -50 c0 -5 -2 -10 -4 -10
-3 0 -8 5 -11 10 -3 6 -1 10 4 10 6 0 11 -4 11 -10z m408 -12 c7 -7 12 -19 12
-27 0 -11 -4 -10 -20 4 -21 19 -26 35 -12 35 4 0 13 -5 20 -12z m76 -114 c5
-14 4 -15 -9 -4 -17 14 -19 20 -6 20 5 0 12 -7 15 -16z m-43 -41 c13 -16 12
-17 -3 -4 -10 7 -18 15 -18 17 0 8 8 3 21 -13z m159 -158 c7 -9 8 -15 2 -15
-5 0 -12 7 -16 15 -3 8 -4 15 -2 15 2 0 9 -7 16 -15z m50 -86 c0 -6 -4 -7 -10
-4 -5 3 -10 11 -10 16 0 6 5 7 10 4 6 -3 10 -11 10 -16z m1071 -166 c28 -66
23 -101 -5 -38 -13 28 -27 61 -31 74 -13 41 15 13 36 -36z m-751 -51 c0 -15
-2 -15 -10 -2 -13 20 -13 33 0 25 6 -3 10 -14 10 -23z m65 -132 c20 -50 35
-94 31 -97 -3 -3 -13 11 -22 33 -8 21 -26 63 -40 93 -25 56 -30 76 -16 67 5
-3 26 -46 47 -96z m-7834 -67 c-12 -20 -14 -14 -5 12 4 9 9 14 11 11 3 -2 0
-13 -6 -23z m-25 -94 c-9 -22 -15 -27 -15 -16 -1 21 18 61 25 54 3 -3 -2 -20
-10 -38z m7925 -1 c7 -24 16 -47 19 -53 4 -5 17 -39 29 -75 12 -36 26 -74 30
-85 19 -41 40 -115 33 -115 -15 0 -37 51 -89 204 -60 179 -56 166 -43 166 5 0
15 -19 21 -42z m689 -66 c0 -15 -2 -15 -10 -2 -13 20 -13 33 0 25 6 -3 10 -14
10 -23z m-8630 -12 c0 -5 -5 -10 -11 -10 -5 0 -7 5 -4 10 3 6 8 10 11 10 2 0
4 -4 4 -10z m-10 -44 c0 -3 -4 -8 -10 -11 -5 -3 -10 -1 -10 4 0 6 5 11 10 11
6 0 10 -2 10 -4z m-30 -106 c-6 -23 -14 -40 -17 -37 -3 3 1 30 8 59 8 29 15
45 17 36 2 -9 -2 -35 -8 -58z m8046 -78 c59 -191 76 -271 55 -258 -6 4 -11 15
-11 24 0 10 -14 60 -31 112 -17 52 -33 104 -34 115 -2 11 -13 47 -24 79 -25
70 -25 72 -6 56 8 -6 31 -64 51 -128z m-8085 -108 c-6 -32 -11 -95 -11 -141 0
-60 -5 -91 -16 -108 -12 -18 -17 -58 -20 -152 -3 -70 -6 -155 -8 -188 -1 -33
-4 -120 -5 -192 -1 -73 -6 -135 -10 -138 -10 -6 -23 123 -15 153 4 12 2 22 -4
22 -17 0 -23 30 -13 69 5 20 12 76 15 124 3 49 9 94 13 100 3 5 7 33 9 61 3
80 33 310 49 389 8 40 16 77 16 82 1 6 3 2 6 -7 2 -9 -1 -43 -6 -74z m8149 26
c0 -13 -1 -13 -10 0 -5 8 -10 22 -10 30 0 13 1 13 10 0 5 -8 10 -22 10 -30z
m627 -62 c-3 -7 -5 -2 -5 12 0 14 2 19 5 13 2 -7 2 -19 0 -25z m-603 -28 c7
-41 -7 -22 -18 25 -5 20 -4 27 3 20 5 -5 12 -26 15 -45z m80 -5 c3 -8 1 -15
-4 -15 -6 0 -10 7 -10 15 0 8 2 15 4 15 2 0 6 -7 10 -15z m544 -24 c4 -28 -13
-20 -21 9 -3 14 -1 20 6 17 7 -2 14 -14 15 -26z m-698 -7 c0 -8 -4 -12 -10 -9
-5 3 -10 10 -10 16 0 5 5 9 10 9 6 0 10 -7 10 -16z m28 -91 c6 -24 6 -43 1
-43 -8 0 -29 63 -29 90 0 27 19 -4 28 -47z m781 -406 c-1 -31 -1 -31 -9 -7
-11 36 -11 52 0 45 6 -3 10 -21 9 -38z m11 -103 c0 -8 -5 -12 -10 -9 -6 4 -8
11 -5 16 9 14 15 11 15 -7z m-643 -26 c-3 -8 -6 -5 -6 6 -1 11 2 17 5 13 3 -3
4 -12 1 -19z m9 -50 c0 -13 3 -75 7 -138 3 -67 2 -122 -3 -130 -8 -12 -10 -11
-10 5 -1 11 -3 80 -6 153 -3 72 -2 132 3 132 4 0 8 -10 9 -22z m631 -70 c-3
-8 -6 -5 -6 6 -1 11 2 17 5 13 3 -3 4 -12 1 -19z m-800 -20 c-3 -8 -6 -5 -6 6
-1 11 2 17 5 13 3 -3 4 -12 1 -19z m-8217 -33 c0 -14 -4 -25 -10 -25 -5 0 -10
11 -10 25 0 14 5 25 10 25 6 0 10 -11 10 -25z m8227 -7 c-3 -8 -6 -5 -6 6 -1
11 2 17 5 13 3 -3 4 -12 1 -19z m60 -100 c-3 -7 -5 -2 -5 12 0 14 2 19 5 13 2
-7 2 -19 0 -25z m-47 -94 c0 -35 -3 -64 -7 -64 -5 0 -8 31 -8 69 0 38 3 67 8
64 4 -2 7 -33 7 -69z m0 -134 c0 -5 -4 -10 -10 -10 -5 0 -10 5 -10 10 0 6 5
10 10 10 6 0 10 -4 10 -10z m77 -37 c-3 -10 -5 -2 -5 17 0 19 2 27 5 18 2 -10
2 -26 0 -35z m-27 -8 c0 -25 -3 -45 -8 -45 -4 0 -6 20 -4 45 2 25 6 45 8 45 2
0 4 -20 4 -45z m-63 -72 c-3 -10 -5 -4 -5 12 0 17 2 24 5 18 2 -7 2 -21 0 -30z
m80 -45 c-3 -8 -6 -5 -6 6 -1 11 2 17 5 13 3 -3 4 -12 1 -19z m-110 -194 c-3
-31 -10 -61 -16 -67 -7 -7 -11 -7 -11 -1 0 21 23 124 28 124 2 0 2 -25 -1 -56z
m-22 -160 c-3 -24 -10 -46 -16 -49 -12 -8 -11 13 3 77 14 59 23 40 13 -28z
m-19 -115 c-4 -29 -10 -57 -14 -63 -3 -6 -7 -22 -8 -36 -3 -37 -42 -140 -43
-111 -1 19 40 205 54 249 10 30 17 8 11 -39z m-8026 -223 c0 -36 -9 -29 -20
16 -22 85 -22 84 -1 48 11 -19 20 -48 21 -64z m25 -69 c0 -14 33 -119 50 -162
7 -16 23 -55 35 -85 12 -30 24 -61 27 -69 4 -9 1 -12 -7 -9 -8 2 -18 19 -22
36 -5 18 -13 32 -18 32 -6 0 -10 8 -10 18 0 11 -7 33 -15 50 -9 17 -18 39 -20
49 -3 10 -14 45 -25 77 -23 69 -27 107 -8 88 7 -7 13 -18 13 -25z m7913 -74
c-23 -62 -34 -80 -44 -70 -3 3 1 16 10 29 9 12 16 35 16 50 0 14 5 39 11 55 9
24 12 26 20 11 6 -11 2 -34 -13 -75z m-7763 -283 c3 -5 1 -10 -4 -10 -6 0 -11
5 -11 10 0 6 2 10 4 10 3 0 8 -4 11 -10z m8306 -37 c-10 -17 -10 -16 -11 3 0
23 13 41 18 25 2 -6 -1 -18 -7 -28z m-8317 -20 c12 -22 30 -49 40 -58 18 -19
36 -58 36 -78 -1 -16 -30 23 -30 40 0 7 -20 33 -45 56 -27 27 -45 52 -45 66 0
33 19 21 44 -26z m116 -313 c0 -5 -2 -10 -4 -10 -3 0 -8 5 -11 10 -3 6 -1 10
4 10 6 0 11 -4 11 -10z m7424 -15 c-15 -22 -31 -36 -21 -17 2 4 7 15 10 25 4
9 11 17 17 17 6 0 3 -11 -6 -25z m-7345 -75 c11 -24 11 -24 -3 -6 -9 11 -16
24 -16 30 0 12 5 7 19 -24z m7793 -52 c-7 -7 -12 -8 -12 -2 0 14 12 26 19 19
2 -3 -1 -11 -7 -17z m-502 8 c0 -3 -4 -8 -10 -11 -5 -3 -10 -1 -10 4 0 6 5 11
10 11 6 0 10 -2 10 -4z m-32 -56 c-14 -22 -24 -19 -15 5 4 8 11 15 17 15 6 0
6 -7 -2 -20z m-7182 -58 c-9 -8 -26 10 -26 26 1 15 2 15 15 -2 8 -11 13 -21
11 -24z m-26 -43 c0 -6 -4 -7 -10 -4 -5 3 -10 11 -10 16 0 6 5 7 10 4 6 -3 10
-11 10 -16z m40 -69 c0 -5 -2 -10 -4 -10 -3 0 -8 5 -11 10 -3 6 -1 10 4 10 6
0 11 -4 11 -10z m75 -50 c21 -41 19 -45 -9 -13 -13 15 -22 31 -19 35 7 13 12
9 28 -22z m7615 -9 c-10 -20 -30 -29 -30 -14 0 10 33 44 37 39 3 -2 0 -14 -7
-25z m-7572 -117 c-10 -9 -55 27 -67 54 -19 39 -12 38 31 -5 23 -23 39 -45 36
-49z m7393 63 c-10 -9 -11 -8 -5 6 3 10 9 15 12 12 3 -3 0 -11 -7 -18z m-7367
-47 c28 -42 32 -55 16 -45 -11 7 -53 85 -47 85 3 0 16 -18 31 -40z m36 -157
c0 -13 -3 -13 -15 -3 -8 7 -15 16 -15 21 0 5 7 6 15 3 8 -4 15 -13 15 -21z
m7205 -20 c-31 -53 -56 -85 -62 -79 -6 5 24 63 50 99 34 44 41 31 12 -20z
m-6975 -237 c-1 -16 -50 47 -50 63 0 8 11 0 25 -19 14 -19 25 -39 25 -44z
m-75 34 c16 -16 24 -30 19 -30 -6 0 -23 14 -39 30 -16 17 -24 30 -19 30 6 0
23 -13 39 -30z m71 -83 c3 -12 18 -34 31 -49 22 -22 23 -26 7 -22 -16 4 -74
91 -74 110 0 14 30 -19 36 -39z m67 -20 c2 -7 26 -38 52 -70 26 -32 45 -61 42
-63 -3 -3 -29 25 -59 63 -67 84 -73 94 -54 87 8 -3 16 -11 19 -17z m49 -118
c18 -23 48 -58 66 -79 17 -21 32 -40 32 -44 0 -10 -21 -7 -35 7 -7 6 -23 20
-35 30 -12 10 -19 25 -16 33 3 8 -1 17 -9 20 -8 4 -15 12 -15 20 0 8 -6 14
-13 14 -8 0 -22 9 -32 20 -18 19 -17 20 3 20 12 0 34 -17 54 -41z m138 -123
c0 -6 -16 5 -35 24 -19 19 -35 41 -35 49 0 15 69 -57 70 -73z m-30 -36 c0 -5
6 -10 13 -10 7 0 29 -17 48 -37 18 -21 22 -28 8 -15 -14 12 -29 19 -32 15 -4
-3 -21 8 -38 25 -23 23 -27 32 -15 32 9 0 16 -4 16 -10z m2775 -21 c6 -19 0
-38 -9 -28 -10 12 -16 49 -7 49 5 0 13 -9 16 -21z m-2632 -63 c51 -61 47 -70
-8 -16 -25 24 -45 48 -45 52 0 18 18 6 53 -36z m-40 -33 c-5 -12 -2 -15 8 -11
15 6 182 -149 228 -211 33 -45 18 -51 -27 -10 -20 19 -39 35 -41 37 -2 1 -1 5
2 8 4 4 15 1 24 -6 10 -7 -6 11 -36 41 -35 34 -56 49 -59 40 -3 -9 -15 -2 -38
20 -32 31 -47 58 -24 44 6 -3 10 -1 10 5 0 6 -8 13 -17 16 -58 18 -83 44 -43
44 14 0 18 -5 13 -17z m2691 -18 c3 -8 1 -15 -4 -15 -6 0 -10 7 -10 15 0 8 2
15 4 15 2 0 6 -7 10 -15z m-2469 -137 c51 -52 48 -57 -5 -10 -8 7 -27 21 -42
33 -27 20 -37 39 -20 39 4 0 34 -28 67 -62z m2505 -28 c0 -5 -2 -10 -4 -10 -3
0 -8 5 -11 10 -3 6 -1 10 4 10 6 0 11 -4 11 -10z m2875 -27 c-42 -31 -59 -33
-26 -4 19 17 37 29 40 25 3 -3 -3 -12 -14 -21z m-5279 -37 c20 -21 17 -28 -6
-14 -11 7 -20 16 -20 20 0 12 10 9 26 -6z m5194 -26 c0 -5 -5 -10 -11 -10 -5
0 -7 5 -4 10 3 6 8 10 11 10 2 0 4 -4 4 -10z m-5179 -43 c60 -41 63 -42 56
-24 -3 10 -4 17 -1 17 10 0 114 -85 114 -92 0 -11 -18 -10 -25 2 -3 5 -12 7
-20 3 -8 -3 -15 0 -15 7 0 6 5 8 12 4 6 -4 8 -3 4 4 -3 6 -21 14 -39 17 -17 4
-36 11 -42 15 -5 5 -12 8 -15 7 -3 -1 -14 6 -25 16 -11 9 -29 23 -40 31 -32
25 -1 18 36 -7z m5129 -1 c0 -3 -4 -8 -10 -11 -5 -3 -10 -1 -10 4 0 6 5 11 10
11 6 0 10 -2 10 -4z m-40 -30 c0 -3 -4 -8 -10 -11 -5 -3 -10 -1 -10 4 0 6 5
11 10 11 6 0 10 -2 10 -4z m-65 -46 c-3 -5 -12 -10 -18 -10 -7 0 -6 4 3 10 19
12 23 12 15 0z m-150 -40 c-3 -5 -12 -10 -18 -10 -7 0 -6 4 3 10 19 12 23 12
15 0z m-4620 -46 c30 -25 30 -25 5 -20 -21 4 -18 -1 20 -35 64 -56 41 -48 -35
12 -67 52 -86 74 -37 44 15 -10 21 -12 15 -4 -14 15 -17 29 -5 29 4 0 21 -12
37 -26z m4665 22 c0 -3 -4 -8 -10 -11 -5 -3 -10 -1 -10 4 0 6 5 11 10 11 6 0
10 -2 10 -4z m-121 -32 c-15 -19 -69 -47 -76 -41 -5 6 67 57 81 57 4 0 3 -7
-5 -16z m181 -4 c0 -5 -5 -10 -11 -10 -5 0 -7 5 -4 10 3 6 8 10 11 10 2 0 4
-4 4 -10z m-152 -22 c-58 -39 -99 -60 -104 -55 -7 7 107 77 125 77 7 0 -2 -10
-21 -22z m-4472 -41 c4 -7 -1 -5 -12 4 -10 9 -27 19 -36 22 -10 4 -18 11 -18
17 0 12 55 -24 66 -43z m4558 15 c-47 -30 -131 -89 -142 -99 -17 -17 -22 -16
-22 2 0 8 4 15 9 15 5 0 43 22 83 49 40 27 75 47 78 44 2 -2 0 -7 -6 -11z
m-214 -12 c-20 -13 -33 -13 -25 0 3 6 14 10 23 10 15 0 15 -2 2 -10z m-5 -40
c-3 -5 -11 -10 -16 -10 -6 0 -7 5 -4 10 3 6 11 10 16 10 6 0 7 -4 4 -10z
m-4274 -41 c32 -23 59 -46 59 -51 0 -5 -15 2 -33 16 -19 15 -37 26 -42 26 -4
0 -20 11 -37 25 -47 40 -12 29 53 -16z m4229 16 c-18 -17 -348 -182 -384 -191
-15 -3 -29 -10 -32 -15 -3 -5 -15 -9 -27 -9 -12 0 25 23 83 51 58 28 163 79
234 115 72 35 132 64 135 64 3 0 -1 -7 -9 -15z m80 -40 c0 -2 -18 -14 -40 -25
-22 -11 -40 -17 -40 -13 1 13 80 51 80 38z m-4195 -15 c3 -5 2 -10 -4 -10 -5
0 -13 5 -16 10 -3 6 -2 10 4 10 5 0 13 -4 16 -10z m1788 -46 c8 -8 -31 -64
-44 -64 -15 0 -10 28 8 50 18 21 26 24 36 14z m-1742 -22 c13 -10 36 -23 52
-30 15 -6 27 -16 27 -22 0 -5 -27 4 -60 22 -33 17 -60 35 -60 40 0 13 15 9 41
-10z m4012 3 c-34 -24 -75 -37 -71 -23 2 6 20 17 39 24 47 17 57 17 32 -1z
m-188 -84 c-6 -5 -21 -12 -35 -15 l-25 -7 25 15 c28 17 50 21 35 7z m-3660
-21 c8 -13 -5 -13 -25 0 -13 8 -13 10 2 10 9 0 20 -4 23 -10z m3195 -80 c0 -5
-5 -10 -11 -10 -5 0 -7 5 -4 10 3 6 8 10 11 10 2 0 4 -4 4 -10z m-2704 -135
c24 -18 11 -18 -46 -1 l-45 15 36 0 c19 1 44 -6 55 -14z"/>
<path d="M6518 11523 c7 -3 16 -2 19 1 4 3 -2 6 -13 5 -11 0 -14 -3 -6 -6z"/>
<path d="M6660 11320 c0 -5 12 -10 26 -10 14 0 23 4 19 10 -3 6 -15 10 -26 10
-10 0 -19 -4 -19 -10z"/>
<path d="M6720 11318 c0 -5 15 -8 33 -9 17 0 39 -2 47 -4 52 -10 144 -16 137
-9 -11 12 -217 32 -217 22z"/>
<path d="M7345 11272 c6 -5 28 -15 50 -21 36 -9 38 -9 21 4 -11 8 -25 15 -32
15 -7 0 -21 3 -31 6 -12 5 -15 4 -8 -4z"/>
<path d="M7245 11260 c28 -12 37 -12 30 0 -3 6 -16 10 -28 9 -21 0 -21 -1 -2
-9z"/>
<path d="M7875 11140 c3 -5 11 -10 18 -10 6 0 48 -16 93 -35 44 -19 96 -37
115 -40 42 -7 25 2 -76 40 -38 15 -84 33 -102 41 -36 16 -57 18 -48 4z"/>
<path d="M4273 11047 c-35 -17 -63 -35 -63 -39 0 -7 135 55 149 68 15 14 -34
-2 -86 -29z"/>
<path d="M7945 11001 c13 -12 106 -43 112 -37 3 2 -8 11 -24 19 -34 17 -102
31 -88 18z"/>
<path d="M8430 10970 c8 -5 20 -10 25 -10 6 0 3 5 -5 10 -8 5 -19 10 -25 10
-5 0 -3 -5 5 -10z"/>
<path d="M8470 10950 c0 -5 5 -10 11 -10 5 0 7 5 4 10 -3 6 -8 10 -11 10 -2 0
-4 -4 -4 -10z"/>
<path d="M8304 10895 c11 -8 24 -15 30 -15 5 0 1 7 -10 15 -10 8 -23 14 -29
14 -5 0 -1 -6 9 -14z"/>
<path d="M8410 10850 c0 -5 5 -10 11 -10 5 0 7 5 4 10 -3 6 -8 10 -11 10 -2 0
-4 -4 -4 -10z"/>
<path d="M8645 10850 c3 -5 11 -10 16 -10 6 0 7 5 4 10 -3 6 -11 10 -16 10 -6
0 -7 -4 -4 -10z"/>
<path d="M8704 10815 c11 -8 24 -15 30 -15 5 0 1 7 -10 15 -10 8 -23 14 -29
14 -5 0 -1 -6 9 -14z"/>
<path d="M8530 10791 c0 -6 124 -79 208 -121 23 -12 45 -26 48 -31 3 -5 10 -9
15 -9 23 0 -21 37 -100 85 -9 5 -33 20 -53 32 -42 25 -118 54 -118 44z"/>
<path d="M9030 10601 c19 -16 37 -27 40 -24 6 6 -51 53 -65 53 -5 0 6 -13 25
-29z"/>
<path d="M8980 10518 c3 -3 25 -22 48 -42 45 -37 83 -51 47 -18 -18 18 -106
73 -95 60z"/>
<path d="M9100 10426 c0 -2 52 -45 114 -95 63 -51 166 -141 228 -201 62 -61
116 -110 120 -110 4 0 15 -11 24 -25 9 -14 26 -31 37 -37 17 -9 19 -8 13 8 -4
9 -2 21 5 24 8 6 8 9 0 14 -6 4 -11 2 -11 -4 0 -6 -72 53 -161 132 -225 199
-369 315 -369 294z"/>
<path d="M9529 10113 c23 -34 39 -48 47 -41 2 2 -13 20 -33 39 l-36 34 22 -32z"/>
<path d="M2969 10054 c-18 -19 -27 -32 -19 -29 14 6 66 65 58 65 -2 0 -20 -16
-39 -36z"/>
<path d="M6290 10030 c0 -5 9 -10 21 -10 11 0 17 5 14 10 -3 6 -13 10 -21 10
-8 0 -14 -4 -14 -10z"/>
<path d="M6340 10030 c0 -5 4 -10 9 -10 6 0 13 5 16 10 3 6 -1 10 -9 10 -9 0
-16 -4 -16 -10z"/>
<path d="M9655 9933 c3 -7 40 -52 81 -100 107 -125 204 -252 321 -425 108
-159 125 -182 99 -130 -15 28 -15 32 -1 32 11 0 4 18 -27 64 -104 157 -145
211 -161 211 -9 0 -48 41 -87 93 -75 99 -92 130 -35 66 19 -21 34 -34 35 -27
0 17 -100 123 -117 123 -8 0 -37 24 -64 53 -28 28 -48 47 -44 40z"/>
<path d="M7270 9810 c0 -5 5 -10 11 -10 5 0 7 5 4 10 -3 6 -8 10 -11 10 -2 0
-4 -4 -4 -10z"/>
<path d="M7382 9768 c5 -13 110 -59 117 -52 7 7 -2 12 -63 39 -35 16 -56 21
-54 13z"/>
<path d="M7930 9777 c0 -9 131 -90 136 -84 4 3 -19 22 -50 42 -58 37 -86 51
-86 42z"/>
<path d="M5530 9749 c0 -5 5 -7 10 -4 6 3 10 8 10 11 0 2 -4 4 -10 4 -5 0 -10
-5 -10 -11z"/>
<path d="M7540 9702 c0 -10 70 -45 77 -38 3 2 -13 14 -36 26 -23 11 -41 17
-41 12z"/>
<path d="M8080 9681 c0 -5 7 -11 15 -15 8 -3 15 -1 15 3 0 5 -7 11 -15 15 -8
3 -15 1 -15 -3z"/>
<path d="M8125 9650 c3 -5 11 -10 16 -10 6 0 7 5 4 10 -3 6 -11 10 -16 10 -6
0 -7 -4 -4 -10z"/>
<path d="M7675 9630 c3 -5 14 -10 23 -10 15 0 15 2 2 10 -20 13 -33 13 -25 0z"/>
<path d="M7755 9591 c10 -12 23 -21 28 -21 5 0 54 -28 109 -61 99 -61 139 -75
74 -25 -19 14 -37 26 -40 26 -3 0 -36 18 -72 41 -37 22 -79 45 -93 50 -25 10
-25 10 -6 -10z"/>
<path d="M8312 9520 c5 -16 48 -46 48 -34 0 5 -12 18 -27 28 -16 12 -24 14
-21 6z"/>
<path d="M8065 9400 c3 -5 11 -10 16 -10 6 0 7 5 4 10 -3 6 -11 10 -16 10 -6
0 -7 -4 -4 -10z"/>
<path d="M8101 9376 c25 -23 102 -76 106 -73 6 6 -86 77 -100 77 -6 0 -8 -2
-6 -4z"/>
<path d="M8595 9350 c3 -5 8 -10 11 -10 2 0 4 5 4 10 0 6 -5 10 -11 10 -5 0
-7 -4 -4 -10z"/>
<path d="M8630 9311 c0 -5 7 -12 16 -15 14 -5 15 -4 4 9 -14 17 -20 19 -20 6z"/>
<path d="M10180 9222 c6 -13 14 -21 18 -18 3 4 -2 14 -12 24 -18 16 -18 16 -6
-6z"/>
<path d="M6170 8988 c-104 -214 -403 -825 -868 -1773 -137 -280 -337 -690
-445 -910 -107 -220 -286 -587 -397 -815 -111 -228 -222 -456 -246 -507 -23
-50 -57 -119 -74 -152 l-30 -61 492 0 493 1 150 307 c82 169 314 642 515 1052
202 410 400 815 442 900 l76 155 117 -240 c64 -132 154 -316 200 -410 110
-226 323 -659 600 -1220 125 -253 235 -479 246 -502 l18 -43 491 0 c269 0 490
3 490 6 0 4 -69 149 -154 323 -799 1643 -826 1697 -1513 3096 -181 369 -365
745 -409 837 -43 93 -82 168 -85 168 -3 0 -52 -96 -109 -212z"/>
<path d="M8770 9172 c0 -12 19 -26 26 -19 2 2 -2 10 -11 17 -9 8 -15 8 -15 2z"/>
<path d="M10220 9141 c11 -22 30 -37 30 -24 -1 11 -26 43 -34 43 -4 0 -2 -9 4
-19z"/>
<path d="M10315 9005 c3 -16 19 -50 34 -76 28 -46 76 -149 146 -314 22 -49 42
-94 47 -99 15 -19 20 4 8 36 -44 110 -202 434 -226 463 -15 19 -15 19 -9 -10z"/>
<path d="M9330 8478 c0 -3 22 -52 49 -109 27 -57 58 -126 70 -153 12 -27 24
-46 27 -43 6 6 -35 105 -94 222 -32 65 -52 97 -52 83z"/>
<path d="M10567 8445 c9 -19 18 -33 21 -31 4 5 -26 66 -33 66 -3 0 3 -16 12
-35z"/>
<path d="M9161 8333 c18 -35 34 -61 37 -59 5 5 -32 75 -53 101 -9 11 -1 -8 16
-42z"/>
<path d="M9224 8334 c-15 -6 45 -131 75 -158 11 -11 21 -23 21 -27 0 -20 73
-163 78 -151 2 7 -8 39 -22 70 -61 130 -131 272 -136 271 -3 0 -10 -3 -16 -5z"/>
<path d="M10616 8308 c3 -12 13 -35 20 -52 12 -28 13 -28 14 -8 0 23 -26 82
-36 82 -3 0 -2 -10 2 -22z"/>
<path d="M9467 8290 c3 -11 9 -22 13 -25 5 -3 6 4 3 15 -3 11 -9 22 -13 25 -5
3 -6 -4 -3 -15z"/>
<path d="M9231 8205 c0 -18 28 -61 29 -44 0 8 -7 24 -15 35 -8 10 -14 15 -14
9z"/>
<path d="M9485 8133 c4 -10 17 -47 30 -83 32 -92 36 -100 46 -100 5 0 -1 24
-12 53 -12 28 -28 73 -37 100 -8 26 -19 47 -25 47 -5 0 -6 -8 -2 -17z"/>
<path d="M9265 8120 c3 -5 8 -10 11 -10 2 0 4 5 4 10 0 6 -5 10 -11 10 -5 0
-7 -4 -4 -10z"/>
<path d="M10681 8110 c0 -8 6 -28 14 -45 10 -23 13 -25 14 -10 0 11 -6 31 -14
45 -8 14 -14 19 -14 10z"/>
<path d="M9310 8035 c0 -17 33 -78 37 -68 2 6 -3 25 -12 42 -14 28 -25 39 -25
26z"/>
<path d="M10716 7997 c3 -10 9 -15 12 -12 3 3 0 11 -7 18 -10 9 -11 8 -5 -6z"/>
<path d="M9400 7970 c0 -16 31 -73 36 -67 2 2 -3 20 -11 40 -15 37 -25 47 -25
27z"/>
<path d="M10723 7946 c3 -8 11 -34 18 -57 16 -56 34 -77 24 -29 -10 54 -28
100 -38 100 -5 0 -7 -6 -4 -14z"/>
<path d="M9366 7900 c3 -14 10 -32 15 -40 7 -12 8 -11 9 6 0 11 -7 29 -16 40
-14 18 -15 18 -8 -6z"/>
<path d="M9570 7911 c0 -17 12 -41 20 -41 10 0 1 38 -11 46 -5 3 -9 1 -9 -5z"/>
<path d="M10481 7895 c0 -6 7 -26 15 -45 l14 -35 -5 35 c-5 30 -26 70 -24 45z"/>
<path d="M9594 7836 c10 -42 35 -100 41 -94 3 2 -2 27 -11 54 -19 57 -41 86
-30 40z"/>
<path d="M10764 7795 c20 -102 33 -149 39 -139 8 14 -14 123 -31 149 -12 18
-13 17 -8 -10z"/>
<path d="M9410 7769 c7 -11 14 -19 16 -16 7 7 -7 37 -17 37 -6 0 -5 -9 1 -21z"/>
<path d="M9440 7690 c0 -5 5 -10 11 -10 5 0 7 5 4 10 -3 6 -8 10 -11 10 -2 0
-4 -4 -4 -10z"/>
<path d="M9640 7681 c0 -5 5 -13 10 -16 6 -3 10 -2 10 4 0 5 -4 13 -10 16 -5
3 -10 2 -10 -4z"/>
<path d="M9660 7625 c0 -5 10 -46 21 -90 28 -109 50 -206 51 -230 0 -11 7 -49
14 -85 15 -73 40 -276 49 -389 3 -40 10 -81 15 -90 8 -11 9 11 5 74 -9 141
-17 239 -21 246 -2 3 -6 26 -9 50 -6 46 -17 118 -34 209 -24 130 -90 351 -91
305z"/>
<path d="M9473 7590 c4 -14 7 -31 7 -37 0 -7 4 -13 9 -13 6 0 6 12 1 31 -11
38 -26 55 -17 19z"/>
<path d="M10720 7519 c0 -36 25 -169 32 -169 10 0 11 -10 -7 89 -13 77 -25
114 -25 80z"/>
<path d="M10623 7295 c0 -22 2 -30 4 -17 2 12 2 30 0 40 -3 9 -5 -1 -4 -23z"/>
<path d="M9894 6986 c4 -38 11 -77 17 -85 7 -11 8 8 3 59 -3 41 -11 80 -16 85
-7 7 -8 -12 -4 -59z"/>
<path d="M9811 6704 c0 -11 3 -14 6 -6 3 7 2 16 -1 19 -3 4 -6 -2 -5 -13z"/>
<path d="M9811 6624 c0 -11 3 -14 6 -6 3 7 2 16 -1 19 -3 4 -6 -2 -5 -13z"/>
<path d="M9807 6483 c-3 -65 -1 -122 4 -127 9 -10 11 23 14 177 2 113 -12 74
-18 -50z"/>
<path d="M10707 6490 c3 -11 7 -20 9 -20 2 0 4 9 4 20 0 11 -4 20 -9 20 -5 0
-7 -9 -4 -20z"/>
<path d="M1720 6450 c0 -5 5 -10 10 -10 6 0 10 5 10 10 0 6 -4 10 -10 10 -5 0
-10 -4 -10 -10z"/>
<path d="M10711 6444 c0 -11 3 -14 6 -6 3 7 2 16 -1 19 -3 4 -6 -2 -5 -13z"/>
<path d="M1695 6400 c-6 -10 -3 -57 15 -200 5 -41 17 -133 26 -205 9 -71 21
-134 26 -140 6 -6 8 2 4 25 -12 75 -36 291 -46 404 -6 66 -12 122 -14 124 -2
2 -7 -2 -11 -8z"/>
<path d="M10781 6294 c0 -11 3 -14 6 -6 3 7 2 16 -1 19 -3 4 -6 -2 -5 -13z"/>
<path d="M10072 6260 c0 -19 2 -27 5 -17 2 9 2 25 0 35 -3 9 -5 1 -5 -18z"/>
<path d="M1740 6240 c0 -5 5 -10 10 -10 6 0 10 5 10 10 0 6 -4 10 -10 10 -5 0
-10 -4 -10 -10z"/>
<path d="M9791 6214 c0 -11 3 -14 6 -6 3 7 2 16 -1 19 -3 4 -6 -2 -5 -13z"/>
<path d="M10017 6151 c-19 -33 -21 -41 -8 -41 10 0 36 58 29 65 -2 2 -12 -9
-21 -24z"/>
<path d="M10852 6145 c0 -16 2 -22 5 -12 2 9 2 23 0 30 -3 6 -5 -1 -5 -18z"/>
<path d="M9777 6096 c-4 -15 -6 -31 -2 -34 10 -10 16 6 13 35 l-3 28 -8 -29z"/>
<path d="M10030 6074 c0 -8 5 -12 10 -9 6 4 8 11 5 16 -9 14 -15 11 -15 -7z"/>
<path d="M9770 6039 c0 -5 5 -7 10 -4 6 3 10 8 10 11 0 2 -4 4 -10 4 -5 0 -10
-5 -10 -11z"/>
<path d="M9760 5988 c0 -9 -3 -23 -6 -32 -3 -9 -2 -16 4 -16 14 0 23 43 12 54
-7 7 -10 4 -10 -6z"/>
<path d="M10011 5963 c0 -25 1 -26 9 -8 12 27 12 35 0 35 -5 0 -10 -12 -9 -27z"/>
<path d="M10831 5963 c0 -6 -4 -20 -7 -30 -5 -14 -4 -15 5 -7 7 7 11 20 8 30
-3 11 -5 14 -6 7z"/>
<path d="M9747 5906 c-4 -15 -6 -31 -2 -34 10 -10 16 6 13 35 l-3 28 -8 -29z"/>
<path d="M9975 5848 c-15 -65 -15 -70 -4 -66 7 2 13 17 14 34 1 16 5 37 9 47
5 10 4 17 -2 17 -5 0 -13 -15 -17 -32z"/>
<path d="M10797 5790 c-3 -11 -1 -20 4 -20 5 0 9 9 9 20 0 11 -2 20 -4 20 -2
0 -6 -9 -9 -20z"/>
<path d="M10720 5780 c0 -11 2 -20 4 -20 2 0 6 9 9 20 3 11 1 20 -4 20 -5 0
-9 -9 -9 -20z"/>
<path d="M9710 5744 c0 -8 5 -12 10 -9 6 3 10 10 10 16 0 5 -4 9 -10 9 -5 0
-10 -7 -10 -16z"/>
<path d="M9696 5687 c-8 -32 -7 -49 3 -43 12 8 20 55 11 61 -4 3 -10 -5 -14
-18z"/>
<path d="M10707 5703 c-4 -3 -7 -13 -7 -22 1 -13 3 -13 11 2 11 19 8 33 -4 20z"/>
<path d="M10777 5674 c-4 -4 -7 -17 -7 -28 1 -19 1 -20 11 -3 11 19 8 43 -4
31z"/>
<path d="M9927 5656 c-4 -10 -7 -25 -6 -34 0 -11 4 -9 10 7 5 13 8 29 6 35 -2
5 -6 2 -10 -8z"/>
<path d="M10690 5640 c0 -11 2 -20 4 -20 2 0 6 9 9 20 3 11 1 20 -4 20 -5 0
-9 -9 -9 -20z"/>
<path d="M9664 5565 c-9 -37 2 -41 14 -6 7 18 7 31 2 31 -5 0 -12 -11 -16 -25z"/>
<path d="M10752 5550 c0 -14 2 -19 5 -12 2 6 2 18 0 25 -3 6 -5 1 -5 -13z"/>
<path d="M10663 5528 c-7 -19 -13 -45 -13 -59 1 -18 5 -13 16 19 8 24 14 50
12 59 -2 9 -8 1 -15 -19z"/>
<path d="M10737 5503 c-4 -3 -7 -11 -7 -17 0 -6 5 -5 12 2 6 6 9 14 7 17 -3 3
-9 2 -12 -2z"/>
<path d="M9636 5465 c-17 -39 -21 -74 -9 -61 10 10 33 89 28 94 -2 2 -11 -13
-19 -33z"/>
<path d="M5731 5398 c-16 -35 -90 -188 -165 -342 -75 -153 -135 -280 -133
-282 2 -2 384 -3 849 -2 l846 3 -167 343 -166 342 -517 0 -518 0 -29 -62z"/>
<path d="M10706 5402 c-19 -67 -19 -72 -7 -72 9 0 37 118 29 126 -3 2 -13 -22
-22 -54z"/>
<path d="M10663 5383 c-31 -87 -43 -127 -39 -131 6 -5 32 57 46 110 13 46 7
62 -7 21z"/>
<path d="M9821 5328 c0 -9 -4 -25 -7 -35 -5 -14 -4 -15 5 -7 7 7 11 22 8 35
-2 13 -5 16 -6 7z"/>
<path d="M10615 5329 c-4 -6 -5 -12 -2 -15 2 -3 7 2 10 11 7 17 1 20 -8 4z"/>
<path d="M9581 5293 c0 -6 -4 -20 -7 -30 -5 -14 -4 -15 5 -7 7 7 11 20 8 30
-3 11 -5 14 -6 7z"/>
<path d="M9666 5284 c-4 -9 -4 -19 -1 -22 2 -3 7 3 11 12 4 9 4 19 1 22 -2 3
-7 -3 -11 -12z"/>
<path d="M10665 5249 c-12 -19 -24 -79 -14 -74 9 6 31 77 25 83 -2 2 -7 -2
-11 -9z"/>
<path d="M9521 5134 c-24 -58 -41 -108 -38 -110 5 -5 73 153 83 192 13 52 -5
19 -45 -82z"/>
<path d="M9787 5228 c-3 -7 -12 -30 -21 -50 -9 -21 -12 -38 -7 -38 10 0 46 89
38 96 -2 3 -7 -1 -10 -8z"/>
<path d="M9636 5195 c-9 -26 -7 -32 5 -12 6 10 9 21 6 23 -2 3 -7 -2 -11 -11z"/>
<path d="M10572 5180 c-14 -23 -17 -59 -3 -44 8 9 24 64 19 64 -2 0 -9 -9 -16
-20z"/>
<path d="M10546 5105 c-9 -26 -7 -32 5 -12 6 10 9 21 6 23 -2 3 -7 -2 -11 -11z"/>
<path d="M9696 4999 c-26 -61 -46 -112 -44 -114 4 -5 44 71 73 140 9 22 21 48
26 57 5 9 5 19 1 22 -4 2 -29 -45 -56 -105z"/>
<path d="M10527 5063 c-4 -3 -7 -13 -7 -22 1 -13 3 -13 11 2 11 19 8 33 -4 20z"/>
<path d="M10592 5031 c-7 -19 -10 -36 -7 -39 6 -7 26 49 22 62 -2 6 -9 -5 -15
-23z"/>
<path d="M10547 5003 c-8 -15 -29 -68 -47 -118 -18 -49 -64 -157 -102 -240
-87 -188 -85 -184 -65 -165 30 28 245 535 233 548 -3 2 -11 -9 -19 -25z"/>
<path d="M9446 4954 c-10 -25 1 -29 14 -5 6 12 7 21 1 21 -5 0 -12 -7 -15 -16z"/>
<path d="M9414 4895 c-20 -30 -10 -47 11 -19 14 18 20 44 10 44 -2 0 -12 -11
-21 -25z"/>
<path d="M9634 4853 c-3 -10 -12 -35 -19 -55 -7 -21 -10 -38 -5 -38 8 0 26 40
36 83 7 29 -3 38 -12 10z"/>
<path d="M10447 4863 c-4 -3 -7 -13 -7 -22 1 -13 3 -13 11 2 11 19 8 33 -4 20z"/>
<path d="M10527 4864 c-4 -4 -7 -17 -7 -28 1 -19 1 -20 11 -3 11 19 8 43 -4
31z"/>
<path d="M9370 4801 c-11 -23 -17 -41 -12 -41 12 0 48 68 40 76 -4 3 -16 -12
-28 -35z"/>
<path d="M10413 4795 c-3 -9 -3 -18 -1 -21 3 -3 8 4 11 16 6 23 -1 27 -10 5z"/>
<path d="M10497 4786 c-4 -10 -5 -21 -2 -24 9 -9 17 6 13 25 -3 17 -4 17 -11
-1z"/>
<path d="M10390 4739 c0 -5 5 -7 10 -4 6 3 10 8 10 11 0 2 -4 4 -10 4 -5 0
-10 -5 -10 -11z"/>
<path d="M9331 4722 c-6 -12 -11 -27 -11 -34 1 -7 8 0 16 15 9 16 13 31 11 34
-3 2 -10 -4 -16 -15z"/>
<path d="M9585 4730 c-3 -5 -1 -10 4 -10 6 0 11 5 11 10 0 6 -2 10 -4 10 -3 0
-8 -4 -11 -10z"/>
<path d="M10366 4694 c-9 -23 -2 -28 13 -10 7 8 8 17 3 20 -6 3 -13 -1 -16
-10z"/>
<path d="M10450 4683 c-15 -34 -30 -83 -25 -83 5 0 32 51 45 85 13 34 -4 32
-20 -2z"/>
<path d="M9548 4658 c-8 -13 -25 -43 -38 -68 -29 -59 -1 -32 35 33 27 50 29
76 3 35z"/>
<path d="M9256 4590 c-25 -39 -46 -73 -46 -77 0 -3 -15 -26 -33 -52 -53 -74
-79 -121 -69 -121 11 0 142 204 142 221 0 5 5 9 10 9 6 0 10 5 10 10 0 6 10
24 22 40 12 16 19 32 16 36 -3 3 -27 -27 -52 -66z"/>
<path d="M10076 4607 c-26 -43 -34 -70 -17 -51 16 16 52 86 47 91 -2 2 -16
-15 -30 -40z"/>
<path d="M10382 4535 c-14 -31 -15 -35 -4 -35 8 0 32 43 32 55 0 15 -19 1 -28
-20z"/>
<path d="M9470 4519 c0 -6 -9 -24 -21 -41 -12 -16 -19 -32 -16 -35 5 -4 57 70
57 82 0 3 -4 5 -10 5 -5 0 -10 -5 -10 -11z"/>
<path d="M10248 4454 c-27 -40 -48 -80 -47 -90 0 -15 2 -16 6 -4 4 8 14 21 24
28 17 12 72 120 67 132 -2 3 -24 -27 -50 -66z"/>
<path d="M10351 4466 c-6 -16 -10 -31 -7 -33 7 -8 28 37 23 50 -3 7 -10 -1
-16 -17z"/>
<path d="M10300 4436 c-5 -15 -10 -29 -10 -32 0 -5 -113 -194 -140 -234 -32
-48 -62 -100 -57 -100 5 0 55 74 122 180 74 117 113 196 102 207 -4 3 -11 -6
-17 -21z"/>
<path d="M9417 4423 c-4 -3 -7 -11 -7 -17 0 -6 5 -5 12 2 6 6 9 14 7 17 -3 3
-9 2 -12 -2z"/>
<path d="M10303 4368 c-37 -70 -38 -72 -24 -64 15 9 64 106 57 113 -2 3 -17
-19 -33 -49z"/>
<path d="M9337 4353 l-17 -38 20 24 c11 13 20 29 20 37 0 22 -5 17 -23 -23z"/>
<path d="M10029 4353 c-13 -16 -12 -17 4 -4 16 13 21 21 13 21 -2 0 -10 -8
-17 -17z"/>
<path d="M9278 4258 c-34 -46 -41 -58 -30 -58 11 0 66 80 59 86 -2 3 -15 -10
-29 -28z"/>
<path d="M9043 4258 c-23 -30 -24 -41 -2 -21 12 12 20 25 17 28 -3 3 -10 0
-15 -7z"/>
<path d="M10225 4230 c-4 -12 -5 -24 -2 -27 3 -2 8 5 12 17 4 12 5 24 2 27 -3
2 -8 -5 -12 -17z"/>
<path d="M10130 4229 c0 -5 5 -7 10 -4 6 3 10 8 10 11 0 2 -4 4 -10 4 -5 0
-10 -5 -10 -11z"/>
<path d="M9286 4190 l-18 -35 22 21 c12 12 20 28 18 35 -3 9 -12 0 -22 -21z"/>
<path d="M10106 4173 c-6 -14 -5 -15 5 -6 7 7 10 15 7 18 -3 3 -9 -2 -12 -12z"/>
<path d="M9787 4174 c-4 -4 -7 -14 -7 -23 0 -11 3 -12 11 -4 6 6 10 16 7 23
-2 6 -7 8 -11 4z"/>
<path d="M9207 4153 c-4 -3 -7 -11 -7 -17 0 -6 5 -5 12 2 6 6 9 14 7 17 -3 3
-9 2 -12 -2z"/>
<path d="M8945 4130 c-10 -11 -16 -22 -13 -25 3 -3 13 4 23 15 10 11 16 22 13
25 -3 3 -13 -4 -23 -15z"/>
<path d="M10147 4094 c-15 -26 -26 -49 -23 -51 6 -7 58 76 54 88 -2 5 -16 -12
-31 -37z"/>
<path d="M9727 4083 c-4 -3 -7 -11 -7 -17 0 -6 5 -5 12 2 6 6 9 14 7 17 -3 3
-9 2 -12 -2z"/>
<path d="M10022 4052 c-24 -48 -24 -58 -2 -25 12 18 20 37 18 43 -1 5 -9 -3
-16 -18z"/>
<path d="M8880 4055 c-7 -9 -11 -18 -8 -20 3 -3 11 1 18 10 7 9 11 18 8 20 -3
3 -11 -1 -18 -10z"/>
<path d="M9127 4052 c-19 -20 -23 -37 -7 -27 10 6 33 45 27 45 -2 0 -11 -8
-20 -18z"/>
<path d="M10048 4013 c-42 -59 -50 -73 -45 -73 5 0 62 77 81 108 19 31 -6 7
-36 -35z"/>
<path d="M9045 3994 c-19 -26 -35 -53 -35 -60 0 -8 -4 -14 -10 -14 -5 0 -10
-5 -10 -12 0 -6 -7 -20 -17 -30 -9 -10 -11 -18 -6 -18 6 0 23 21 39 48 15 26
40 62 56 80 25 29 36 52 23 52 -2 0 -20 -21 -40 -46z"/>
<path d="M9727 4000 c-16 -22 -24 -40 -19 -40 4 0 20 18 35 40 34 52 21 52
-16 0z"/>
<path d="M10076 3985 c-3 -8 -1 -15 3 -15 5 0 11 7 15 15 3 8 1 15 -3 15 -5 0
-11 -7 -15 -15z"/>
<path d="M10050 3939 c0 -5 5 -7 10 -4 6 3 10 8 10 11 0 2 -4 4 -10 4 -5 0
-10 -5 -10 -11z"/>
<path d="M8755 3910 c-3 -5 -1 -10 4 -10 6 0 11 5 11 10 0 6 -2 10 -4 10 -3 0
-8 -4 -11 -10z"/>
<path d="M9950 3865 c-17 -25 -29 -45 -26 -45 3 0 19 20 36 45 17 25 29 45 26
45 -3 0 -19 -20 -36 -45z"/>
<path d="M9916 3875 c-3 -8 -1 -15 3 -15 5 0 11 7 15 15 3 8 1 15 -3 15 -5 0
-11 -7 -15 -15z"/>
<path d="M9764 3738 c-165 -217 -252 -316 -457 -520 -104 -104 -183 -188 -176
-188 21 0 420 410 524 538 109 135 229 301 222 308 -2 2 -53 -60 -113 -138z"/>
<path d="M8901 3829 c-18 -22 -31 -42 -28 -45 3 -3 11 2 18 11 8 9 22 25 32
36 10 11 17 24 15 29 -2 5 -18 -9 -37 -31z"/>
<path d="M9977 3833 c-4 -3 -7 -11 -7 -17 0 -6 5 -5 12 2 6 6 9 14 7 17 -3 3
-9 2 -12 -2z"/>
<path d="M9003 3807 c-35 -39 -37 -53 -2 -20 18 18 31 35 28 38 -3 3 -15 -5
-26 -18z"/>
<path d="M9072 3814 c-7 -8 -8 -14 -3 -14 10 0 25 19 20 25 -2 1 -10 -3 -17
-11z"/>
<path d="M9016 3753 c-6 -14 -5 -15 5 -6 7 7 10 15 7 18 -3 3 -9 -2 -12 -12z"/>
<path d="M9419 3696 c-37 -39 -107 -119 -157 -176 -49 -58 -107 -125 -128
-149 -78 -90 -12 -32 106 94 117 125 256 292 248 300 -2 2 -33 -29 -69 -69z"/>
<path d="M8815 3729 c-11 -17 1 -21 15 -4 8 9 8 15 2 15 -6 0 -14 -5 -17 -11z"/>
<path d="M8915 3720 c-3 -6 1 -7 9 -4 18 7 21 14 7 14 -6 0 -13 -4 -16 -10z"/>
<path d="M8985 3690 c-10 -11 -16 -22 -13 -25 3 -3 13 4 23 15 10 11 16 22 13
25 -3 3 -13 -4 -23 -15z"/>
<path d="M9876 3694 c-5 -14 -4 -15 9 -4 17 14 19 20 6 20 -5 0 -12 -7 -15
-16z"/>
<path d="M8766 3674 c-5 -14 -4 -15 9 -4 17 14 19 20 6 20 -5 0 -12 -7 -15
-16z"/>
<path d="M8865 3672 c-29 -26 -69 -72 -63 -72 7 0 61 50 77 73 17 22 12 21
-14 -1z"/>
<path d="M8895 3640 c-3 -5 -2 -10 4 -10 5 0 13 5 16 10 3 6 2 10 -4 10 -5 0
-13 -4 -16 -10z"/>
<path d="M9739 3633 c-13 -16 -12 -17 4 -4 16 13 21 21 13 21 -2 0 -10 -8 -17
-17z"/>
<path d="M8716 3623 c-6 -14 -5 -15 5 -6 7 7 10 15 7 18 -3 3 -9 -2 -12 -12z"/>
<path d="M8840 3585 c-13 -14 -19 -25 -13 -25 12 0 48 38 41 45 -2 3 -15 -6
-28 -20z"/>
<path d="M2770 3581 c0 -5 5 -13 10 -16 6 -3 10 -2 10 4 0 5 -4 13 -10 16 -5
3 -10 2 -10 -4z"/>
<path d="M8757 3572 c-10 -10 -14 -22 -10 -25 7 -8 43 21 43 35 0 14 -16 9
-33 -10z"/>
<path d="M9683 3578 c-24 -32 -24 -41 0 -19 15 14 27 26 27 28 0 8 -19 2 -27
-9z"/>
<path d="M8730 3480 c-41 -38 -72 -69 -67 -70 7 0 21 12 116 97 20 17 34 34
31 37 -3 2 -39 -26 -80 -64z"/>
<path d="M8694 3505 c-14 -14 -29 -25 -33 -25 -5 0 -11 -7 -15 -15 -3 -8 -11
-15 -18 -15 -7 0 -27 -16 -43 -35 -17 -19 -36 -35 -42 -35 -7 0 -13 -5 -13
-10 0 -6 -8 -14 -17 -18 -10 -4 -39 -23 -65 -41 -45 -33 -59 -51 -40 -51 8 0
121 77 132 90 3 3 32 28 64 55 68 57 96 83 115 108 20 26 4 21 -25 -8z"/>
<path d="M9247 3423 c-4 -3 -7 -11 -7 -17 0 -6 5 -5 12 2 6 6 9 14 7 17 -3 3
-9 2 -12 -2z"/>
<path d="M8626 3391 c-4 -6 -38 -33 -76 -62 -72 -53 -91 -84 -23 -35 58 41
117 95 111 102 -3 3 -9 1 -12 -5z"/>
<path d="M8351 3245 c-13 -7 -26 -17 -30 -22 -10 -13 -151 -109 -196 -133 -78
-42 -144 -90 -140 -102 3 -7 -8 -21 -25 -30 -16 -9 -30 -21 -30 -27 0 -5 38
14 85 43 47 28 109 65 139 81 29 17 81 49 115 73 34 23 68 42 75 42 8 0 19 7
26 15 6 8 33 28 58 45 25 16 40 30 34 30 -12 0 -71 -31 -112 -60 -14 -9 -34
-20 -45 -23 l-20 -7 20 15 c11 9 30 25 43 35 12 11 27 20 32 20 6 0 10 5 10
10 0 13 -9 11 -39 -5z m-275 -221 c-30 -21 -44 -16 -17 7 13 11 27 17 30 13 3
-3 -3 -12 -13 -20z"/>
<path d="M9007 2948 c-48 -39 -85 -73 -83 -76 6 -5 144 99 172 129 35 39 -4
16 -89 -53z"/>
<path d="M7929 2970 l-24 -21 33 16 c31 15 41 25 23 25 -5 0 -19 -9 -32 -20z"/>
<path d="M7813 2912 c-29 -14 -53 -30 -53 -34 0 -5 27 6 60 23 56 29 71 40 53
38 -5 0 -32 -12 -60 -27z"/>
<path d="M7877 2912 c-27 -16 -36 -32 -18 -32 13 0 57 37 51 43 -3 3 -18 -2
-33 -11z"/>
<path d="M7800 2870 c-8 -5 -11 -12 -7 -16 4 -4 15 0 24 9 18 18 8 23 -17 7z"/>
<path d="M8848 2822 c-26 -20 -45 -38 -43 -41 5 -5 80 45 96 65 20 25 -5 13
-53 -24z"/>
<path d="M7655 2830 c-8 -13 5 -13 25 0 13 8 13 10 -2 10 -9 0 -20 -4 -23 -10z"/>
<path d="M7530 2780 c-13 -9 -13 -10 0 -10 8 0 22 5 30 10 13 9 13 10 0 10 -8
0 -22 -5 -30 -10z"/>
<path d="M8757 2756 c-4 -10 -1 -13 9 -9 7 3 14 9 14 14 0 14 -17 10 -23 -5z"/>
<path d="M3620 2750 c0 -5 5 -10 11 -10 5 0 7 5 4 10 -3 6 -8 10 -11 10 -2 0
-4 -4 -4 -10z"/>
<path d="M8716 2732 c-3 -5 -50 -39 -106 -76 -55 -37 -100 -69 -100 -72 0 -7
8 -2 122 73 95 62 120 83 99 83 -5 0 -12 -4 -15 -8z"/>
<path d="M3720 2670 c8 -5 20 -10 25 -10 6 0 3 5 -5 10 -8 5 -19 10 -25 10 -5
0 -3 -5 5 -10z"/>
<path d="M7255 2670 c-3 -5 -2 -10 4 -10 5 0 13 5 16 10 3 6 2 10 -4 10 -5 0
-13 -4 -16 -10z"/>
<path d="M8164 2595 c-10 -8 -14 -14 -9 -14 6 0 19 6 29 14 11 8 15 15 10 15
-6 0 -19 -7 -30 -15z"/>
<path d="M8480 2569 c0 -5 5 -7 10 -4 6 3 10 8 10 11 0 2 -4 4 -10 4 -5 0 -10
-5 -10 -11z"/>
<path d="M8393 2528 c-13 -6 -23 -15 -23 -20 0 -5 14 -2 30 7 45 23 38 35 -7
13z"/>
<path d="M7974 2499 c-19 -22 -19 -22 4 -10 12 6 22 16 22 21 0 15 -5 12 -26
-11z"/>
<path d="M7901 2466 c-10 -12 -8 -13 8 -9 12 3 18 9 15 14 -7 12 -10 11 -23
-5z"/>
<path d="M8274 2454 c-18 -14 -18 -14 6 -3 31 14 36 19 24 19 -6 0 -19 -7 -30
-16z"/>
<path d="M8225 2430 c-3 -6 1 -7 9 -4 18 7 21 14 7 14 -6 0 -13 -4 -16 -10z"/>
<path d="M6768 2393 c7 -3 16 -2 19 1 4 3 -2 6 -13 5 -11 0 -14 -3 -6 -6z"/>
<path d="M4230 2380 c8 -5 20 -10 25 -10 6 0 3 5 -5 10 -8 5 -19 10 -25 10 -5
0 -3 -5 5 -10z"/>
<path d="M6698 2383 c6 -2 18 -2 25 0 6 3 1 5 -13 5 -14 0 -19 -2 -12 -5z"/>
<path d="M8125 2380 c-8 -13 5 -13 25 0 13 8 13 10 -2 10 -9 0 -20 -4 -23 -10z"/>
<path d="M7885 2370 c-3 -6 1 -7 9 -4 18 7 21 14 7 14 -6 0 -13 -4 -16 -10z"/>
<path d="M5420 2360 c-9 -6 -10 -10 -3 -10 6 0 15 5 18 10 8 12 4 12 -15 0z"/>
<path d="M7168 2363 c7 -3 16 -2 19 1 4 3 -2 6 -13 5 -11 0 -14 -3 -6 -6z"/>
<path d="M7660 2359 c0 -5 5 -7 10 -4 6 3 10 8 10 11 0 2 -4 4 -10 4 -5 0 -10
-5 -10 -11z"/>
<path d="M8020 2330 c-8 -5 -12 -11 -10 -14 3 -2 14 2 24 10 22 15 10 19 -14
4z"/>
<path d="M6380 2280 c-21 -7 -17 -8 20 -9 25 0 52 4 60 9 19 12 -42 12 -80 0z"/>
<path d="M7867 2264 c-16 -9 -27 -17 -25 -20 6 -6 58 20 58 29 0 9 0 9 -33 -9z"/>
<path d="M7711 2204 c-19 -8 -32 -17 -29 -19 5 -6 78 22 78 30 0 8 -13 5 -49
-11z"/>
<path d="M7573 2155 c-18 -8 -33 -16 -33 -19 0 -5 60 11 68 19 13 12 -5 12
-35 0z"/>
<path d="M6740 2140 c0 -13 11 -13 30 0 12 8 11 10 -7 10 -13 0 -23 -4 -23
-10z"/>
<path d="M6635 2135 c-5 -2 -27 -6 -49 -10 -21 -3 -36 -9 -33 -12 9 -8 107 8
107 18 0 9 -7 10 -25 4z"/>
<path d="M6675 2130 c4 -6 11 -8 16 -5 14 9 11 15 -7 15 -8 0 -12 -5 -9 -10z"/>
<path d="M7432 2111 c-51 -18 -76 -31 -56 -31 16 0 123 36 130 43 12 12 -18 7
-74 -12z"/>
<path d="M6385 2100 c-7 -11 16 -11 60 0 28 7 28 8 -12 9 -23 0 -45 -3 -48 -9z"/>
<path d="M7276 2061 c-3 -4 6 -6 19 -3 14 2 25 6 25 8 0 8 -39 4 -44 -5z"/>
<path d="M7218 2043 c6 -2 18 -2 25 0 6 3 1 5 -13 5 -14 0 -19 -2 -12 -5z"/>
<path d="M7155 2030 c-7 -12 2 -12 30 0 19 8 19 9 -2 9 -12 1 -25 -3 -28 -9z"/>
</g>
</svg>
